<svg width="18" height="22" viewBox="0 0 18 22" fill="none" xmlns="http://www.w3.org/2000/svg">
<path fill-rule="evenodd" clip-rule="evenodd" d="M7.85201 6.04471C8.20444 6.08527 8.47043 6.41391 8.47043 6.80079C8.47043 7.19079 8.20444 7.51527 7.85201 7.55999H5.21893C4.86554 7.51527 4.59954 7.19079 4.59954 6.80079C4.59954 6.41391 4.86554 6.08527 5.21893 6.04471H7.85201ZM12.1358 10.4439C12.398 10.4117 12.6573 10.5458 12.7994 10.7933C12.9386 11.0419 12.9386 11.3581 12.7994 11.6066C12.6573 11.8541 12.398 11.9883 12.1358 11.9561H5.21124C4.85882 11.9155 4.59186 11.59 4.59186 11.2C4.59186 10.81 4.85882 10.4845 5.21124 10.4439H12.1358ZM12.1358 14.8525C12.5142 14.8525 12.8186 15.1894 12.8186 15.6033C12.8186 16.0183 12.5142 16.3553 12.1358 16.3553H5.21124C4.83193 16.3553 4.52464 16.0183 4.52464 15.6033C4.52464 15.1894 4.83193 14.8525 5.21124 14.8525H12.1358ZM12.3836 0.799988C15.4709 0.799988 17.3194 2.83111 17.3271 6.21943V16.1805C17.3271 19.5689 15.4891 21.6 12.3941 21.6H9.6487C9.30012 21.5594 9.03316 21.2308 9.03316 20.8439C9.03316 20.4539 9.30012 20.1294 9.6487 20.0847H12.3836C14.743 20.0847 15.9318 18.7722 15.9318 16.1805V6.21943C15.9318 3.62775 14.743 2.31527 12.3836 2.31527H4.97501C2.61945 2.31527 1.42294 3.62775 1.42294 6.21943V16.1805C1.42294 18.7722 2.61945 20.0847 4.97501 20.0847C5.32744 20.1294 5.59343 20.4539 5.59343 20.8439C5.59343 21.2308 5.32744 21.5594 4.97501 21.6C1.89155 21.6 0.0420532 19.5689 0.0420532 16.1805V6.21943C0.0420532 2.81863 1.89155 0.799988 4.97501 0.799988H12.3836Z" fill="black"/>
</svg>
