<svg width="20" height="21" viewBox="0 0 20 21" fill="none" xmlns="http://www.w3.org/2000/svg">
<path fill-rule="evenodd" clip-rule="evenodd" d="M15.6705 9.76999C16.0229 9.76999 16.3081 10.0872 16.3081 10.4813C16.3081 10.8713 16.0229 11.1875 15.6705 11.1875H15.3776C15.0252 11.1875 14.7361 10.8713 14.7361 10.4813C14.7361 10.0872 15.0252 9.76999 15.3776 9.76999H15.6705ZM14.1177 0.799988C17.1819 0.799988 19.6729 3.56223 19.6729 6.95471V14.4053C19.6729 17.7977 17.1819 20.56 14.1177 20.56C13.7653 20.56 13.4762 20.2428 13.4762 19.8486C13.4762 19.4586 13.7653 19.1425 14.1177 19.1425C16.4733 19.1425 18.3938 17.0177 18.3938 14.4053V8.45751H15.2393C14.2041 8.46167 13.36 9.39663 13.36 10.5417C13.36 11.6919 14.2041 12.6258 15.2393 12.6258H16.5482C16.9044 12.6258 17.1896 12.9472 17.1896 13.3372C17.1896 13.7272 16.9044 14.0475 16.5482 14.0475H15.2393C13.4983 14.0433 12.0809 12.4761 12.0771 10.5417C12.0809 8.61247 13.4983 7.03999 15.2393 7.03999H18.3938V6.95471C18.3938 4.34223 16.4733 2.21751 14.1177 2.21751H6.02252C4.12117 2.21751 2.5271 3.60695 1.9711 5.50807H10.411C10.7644 5.50807 11.0496 5.82527 11.0496 6.21943C11.0496 6.60943 10.7644 6.92663 10.411 6.92663H1.75024L1.74639 6.95471V14.4053C1.74639 17.0177 3.66311 19.1425 6.02252 19.1425H10.096C10.4494 19.1425 10.7337 19.4586 10.7337 19.8486C10.7337 20.2428 10.4494 20.56 10.096 20.56H6.02252C2.95827 20.56 0.4673 17.7977 0.4673 14.4053V6.95471C0.4673 3.56223 2.95827 0.799988 6.02252 0.799988H14.1177Z" fill="black"/>
</svg>
