<svg width="22" height="10" viewBox="0 0 22 10" fill="none" xmlns="http://www.w3.org/2000/svg">
<path d="M19.2806 7.97153H21V6.57926C20.9997 6.30306 20.9114 6.03413 20.7481 5.81138C20.5848 5.58863 20.3549 5.42359 20.0916 5.34014L15.4066 3.86781L13.179 1.98476C12.7517 1.62423 12.2565 1.35313 11.7226 1.18751C11.1887 1.0219 10.627 0.965145 10.0707 1.02061L4.3241 1.60189L2.39928 4.61964C2.21018 4.91719 2.10995 5.26255 2.11038 5.61511V7.2928" stroke="#EDD500" stroke-linecap="round" stroke-linejoin="round"/>
<path d="M7.92633 7.97153H16.2138" stroke="#EDD500" stroke-linecap="round" stroke-linejoin="round"/>
<path d="M1 7.54341L3.52001 7.97153" stroke="#EDD500" stroke-linecap="round" stroke-linejoin="round"/>
<path d="M5.03083 9.48215C5.86512 9.48215 6.54144 8.80582 6.54144 7.97153C6.54144 7.13724 5.86512 6.46092 5.03083 6.46092C4.19654 6.46092 3.52021 7.13724 3.52021 7.97153C3.52021 8.80582 4.19654 9.48215 5.03083 9.48215Z" stroke="#EDD500" stroke-linecap="round" stroke-linejoin="round"/>
<path d="M17.7244 9.48215C18.5587 9.48215 19.2351 8.80582 19.2351 7.97153C19.2351 7.13724 18.5587 6.46092 17.7244 6.46092C16.8901 6.46092 16.2138 7.13724 16.2138 7.97153C16.2138 8.80582 16.8901 9.48215 17.7244 9.48215Z" stroke="#EDD500" stroke-linecap="round" stroke-linejoin="round"/>
<path d="M9.77145 1.05194L10.217 4.42124V7.97154" stroke="#EDD500" stroke-linecap="round" stroke-linejoin="round"/>
<path d="M15.4066 3.86781H6.67012C6.09928 3.81908 4.32414 1.60188 4.32414 1.60188L3.65585 1.15984" stroke="#EDD500" stroke-linecap="round" stroke-linejoin="round"/>
</svg>
