<svg width="65" height="62" viewBox="0 0 65 62" fill="none" xmlns="http://www.w3.org/2000/svg">
<path d="M26.626 25.6552H28.8621C30.2602 25.6341 30.273 23.541 28.862 23.5172H7.48276C6.08405 23.5385 6.07237 25.6315 7.48283 25.6552H23.6154C23.4343 25.9956 23.546 27.93 23.5172 28.3276C23.5172 29.2132 24.2351 29.931 25.1207 29.931C26.0063 29.931 26.7241 29.2132 26.7241 28.3276C26.6949 27.9199 26.8081 26.0068 26.626 25.6552Z" fill="#FF9900"/>
<path d="M58.7931 31H56.6552C57.0081 27.628 54.8246 24.6208 51.3103 24.5862C51.3103 24.5862 36.3448 24.5862 36.3448 24.5862V19.2414C36.3448 16.2944 33.947 13.8966 31 13.8966H24.5862V6.41379H26.1897C30.4137 6.30477 30.4215 0.111044 26.1897 0H10.1552C5.93111 0.109024 5.92335 6.30275 10.1553 6.41379H11.7586V13.8966H5.34483C2.39786 13.8966 0 16.2944 0 19.2414V51.3103C0 54.2573 2.39786 56.6552 5.34483 56.6552C4.69342 63.7634 14.5499 63.7587 13.8966 56.6552H23.5172C23.5172 59.6055 25.9117 62 28.8621 62H58.7931C61.7435 62 64.1379 59.6055 64.1379 56.6552V36.3448C64.1379 33.3945 61.7435 31 58.7931 31ZM36.3448 26.7241H51.3103C53.0742 26.7241 54.5172 28.1672 54.5172 29.931V31H33.1379V29.931C33.1379 28.1672 34.581 26.7241 36.3448 26.7241ZM53.9828 45.9655V48.1035C53.9597 49.508 51.8679 49.509 51.8448 48.1034C51.8448 48.1034 51.8448 45.9655 51.8448 45.9655C51.8679 44.5609 53.9597 44.56 53.9828 45.9655ZM35.8103 45.9655V48.1035C35.7873 49.508 33.6955 49.509 33.6724 48.1034C33.6724 48.1034 33.6724 45.9655 33.6724 45.9655C33.6954 44.5609 35.7872 44.56 35.8103 45.9655ZM13.8966 6.41379H22.4483V13.8966H13.8966V6.41379ZM23.5172 36.3448V54.5172H5.34483C3.57644 54.5172 2.13793 53.0787 2.13793 51.3103V19.2414C2.13793 17.473 3.57644 16.0345 5.34483 16.0345H31C32.7684 16.0345 34.2069 17.473 34.2069 19.2414V25.038C32.3214 25.864 31 27.7419 31 29.931V31H28.8621C25.9117 31 23.5172 33.3945 23.5172 36.3448ZM62 56.6552C62 58.4189 60.5569 59.8621 58.7931 59.8621H28.8621C27.0983 59.8621 25.6552 58.4189 25.6552 56.6552V44.8645C26.7787 45.8495 28.4121 45.9869 29.931 45.9816V48.1035C29.931 49.8672 31.3741 51.3103 33.1379 51.3103H36.3448C38.1086 51.3103 39.5517 49.8672 39.5517 48.1035V45.9655H48.1035V48.1035C48.1035 49.8672 49.5465 51.3103 51.3103 51.3103H54.5172C56.2811 51.3103 57.7241 49.8672 57.7241 48.1035V45.9824C59.2354 45.9949 60.8752 45.8451 62 44.8645V56.6552Z" fill="#FF9900"/>
</svg>
