<svg width="100" height="62" viewBox="0 0 100 62" fill="none" xmlns="http://www.w3.org/2000/svg">
<path opacity="0.3" d="M69.5708 62L100.008 46.7814L30.4372 11.996L0 27.2146L69.5708 62Z" fill="#262626"/>
<path d="M12.8923 27.519L23.8062 24.4752L16.2839 20.1488L12.4792 23.823L12.8923 27.519Z" fill="#2D3134"/>
<path d="M54.7218 49.2164L65.6357 46.1726L58.0916 41.8462L54.287 45.5204L54.7218 49.2164Z" fill="#2D3134"/>
<path opacity="0.29" d="M12.8923 27.519L23.8062 24.4752L16.2839 20.1488L12.4792 23.823L12.8923 27.519Z" fill="black"/>
<path opacity="0.29" d="M54.7218 49.2164L65.6357 46.1726L58.0916 41.8462L54.287 45.5204L54.7218 49.2164Z" fill="black"/>
<path d="M62.7007 44.8899C61.2441 44.1507 59.9179 44.0638 58.9395 44.5203L56.8741 45.6291C55.8306 46.1074 55.1566 47.1727 55.1566 48.7381C55.1566 51.76 57.6133 55.456 60.6353 56.9561C62.1354 57.6953 63.4834 57.7823 64.4835 57.304C64.4835 57.304 66.5271 56.2169 66.7445 56.0865C67.6359 55.5647 68.1794 54.5429 68.1794 53.1297C68.1794 50.086 65.7227 46.4118 62.7007 44.8899Z" fill="#2D3134"/>
<path opacity="0.29" d="M64.5487 57.2822C64.94 57.0866 66.5488 56.2169 66.7445 56.0865C67.6359 55.5647 68.1794 54.5429 68.1794 53.1297C68.1794 51.9122 67.7881 50.586 67.1141 49.3468L65.0487 50.4556C65.7227 51.6948 66.114 53.021 66.114 54.2385C66.1358 55.7169 65.527 56.7822 64.5487 57.2822Z" fill="black"/>
<path d="M66.1358 54.2385C66.1358 57.2605 63.679 58.4997 60.657 56.9779C57.6351 55.456 55.1783 51.7818 55.1783 48.7598C55.1783 45.7378 57.6351 44.4986 60.657 46.0205C63.679 47.5206 66.1358 51.2165 66.1358 54.2385Z" fill="#2D3134"/>
<path d="M64.9183 53.6298C64.9183 55.9995 63.0051 56.9561 60.6353 55.7821C58.2655 54.6081 56.3524 51.7166 56.3524 49.3468C56.3524 46.9771 58.2655 46.0205 60.6353 47.1945C63.0051 48.3902 64.9183 51.26 64.9183 53.6298Z" fill="#E5E5E5"/>
<path d="M63.4617 55.543C64.1139 55.1734 64.5053 54.4559 64.5053 53.4341V53.1949L62.1138 52.8253L63.4617 55.543Z" fill="#2D3134"/>
<path d="M61.5485 50.8252L64.0487 51.3687C63.5269 50.1295 62.592 48.912 61.4615 48.1293L61.5485 50.8252Z" fill="#2D3134"/>
<path d="M59.744 49.9338L59.831 47.3249C58.7004 46.9988 57.7656 47.2597 57.2438 47.9771L59.744 49.9338Z" fill="#2D3134"/>
<path d="M56.7872 49.3251V49.5642C56.7872 50.586 57.1786 51.6948 57.8308 52.7166L59.2005 51.3687L56.7872 49.3251Z" fill="#2D3134"/>
<path d="M60.6354 53.1297L59.157 54.3255C59.6135 54.7385 60.1136 55.0864 60.6354 55.3473C61.1571 55.6082 61.6572 55.7604 62.1137 55.7821L60.6354 53.1297Z" fill="#2D3134"/>
<path opacity="0.11" d="M66.1358 54.2385C66.1358 57.2605 63.679 58.4997 60.657 56.9779C57.6351 55.456 55.1783 51.7818 55.1783 48.7598C55.1783 45.7378 57.6351 44.4986 60.657 46.0205C63.679 47.5206 66.1358 51.2165 66.1358 54.2385Z" fill="black"/>
<path d="M20.9147 23.8665C19.4581 23.1273 18.1319 23.0403 17.1535 23.4969L15.0882 24.6057C14.0446 25.084 13.3706 26.1493 13.3706 27.7146C13.3706 30.7366 15.8274 34.4326 18.8493 35.9327C20.3495 36.6719 21.6974 36.7588 22.6975 36.2805C22.6975 36.2805 24.7411 35.1935 24.9585 35.0631C25.8499 34.5413 26.3934 33.5195 26.3934 32.1063C26.4152 29.0626 23.9584 25.3884 20.9147 23.8665Z" fill="#2D3134"/>
<path opacity="0.29" d="M22.7845 36.2588C23.1758 36.0631 24.7846 35.1935 24.9803 35.0631C25.8717 34.5413 26.4152 33.5194 26.4152 32.1063C26.4152 30.8888 26.0238 29.5626 25.3499 28.3234L23.2845 29.4322C23.9585 30.6714 24.3498 31.9976 24.3498 33.2151C24.3498 34.6935 23.7411 35.737 22.7845 36.2588Z" fill="black"/>
<path d="M24.3498 33.1933C24.3498 36.2153 21.8931 37.4545 18.8711 35.9327C15.8491 34.4108 13.3924 30.7366 13.3924 27.7146C13.3924 24.6926 15.8491 23.4534 18.8711 24.9753C21.8931 26.4971 24.3498 30.1713 24.3498 33.1933Z" fill="#2D3134"/>
<path d="M23.154 32.6063C23.154 34.9761 21.2408 35.9327 18.8711 34.7587C16.5013 33.5847 14.5881 30.6931 14.5881 28.3234C14.5881 25.9536 16.5013 24.997 18.8711 26.171C21.2408 27.345 23.154 30.2366 23.154 32.6063Z" fill="#E5E5E5"/>
<path d="M21.6974 34.4978C22.3496 34.1282 22.741 33.4107 22.741 32.3889V32.1497L20.3495 31.7802L21.6974 34.4978Z" fill="#2D3134"/>
<path d="M19.7625 29.78L22.2627 30.3235C21.7409 29.0843 20.806 27.8668 19.6755 27.0841L19.7625 29.78Z" fill="#2D3134"/>
<path d="M17.9797 28.8886L18.0667 26.2797C16.9361 25.9536 16.0013 26.2145 15.4795 26.9319L17.9797 28.8886Z" fill="#2D3134"/>
<path d="M15.0229 28.2799V28.519C15.0229 29.5408 15.4143 30.6496 16.0665 31.6714L17.4362 30.3235L15.0229 28.2799Z" fill="#2D3134"/>
<path d="M18.8711 32.1063L17.3927 33.302C17.8493 33.7151 18.3493 34.0629 18.8711 34.3238C19.3929 34.5847 19.8929 34.7369 20.3495 34.7586L18.8711 32.1063Z" fill="#2D3134"/>
<path opacity="0.11" d="M24.3498 33.1933C24.3498 36.2153 21.8931 37.4545 18.8711 35.9327C15.8491 34.4108 13.3924 30.7366 13.3924 27.7146C13.3924 24.6926 15.8491 23.4534 18.8711 24.9753C21.8931 26.4971 24.3498 30.1713 24.3498 33.1933Z" fill="black"/>
<path d="M93.7032 32.8672C89.5072 29.1278 71.4188 14.9092 68.3968 12.6699C65.3748 10.4306 54.4391 3.5605 47.0907 1.66904C39.7423 -0.222414 38.8292 0.886371 37.3291 0.560258C35.8289 0.234145 31.3721 -0.809418 24.8063 1.21248C22.0017 2.08212 18.6754 3.03872 15.9578 5.4737C12.3488 8.69135 9.56595 13.6918 8.21802 16.4094L7.93539 17.3225C7.43535 18.953 7.65275 20.7358 8.52239 22.1924C9.26158 23.4317 10.1964 24.8666 10.8921 25.6492C11.5009 26.3232 12.2401 27.0407 12.8706 27.6494V27.4972C12.8706 25.1927 14.2185 23.7143 16.3056 23.7143C17.1318 23.7143 18.0232 23.9534 18.9363 24.41C22.0887 25.9754 24.6324 29.8235 24.6324 32.9759C24.6324 33.389 24.5889 33.7803 24.5019 34.1499L54.7 49.2381C54.6783 48.9989 54.6565 48.7598 54.6565 48.5424C54.6565 46.2379 56.0045 44.7595 58.0916 44.7595C58.9178 44.7595 59.8091 44.9986 60.7222 45.4552C63.8747 47.0205 66.4184 50.8687 66.4184 54.0211C66.4184 54.3907 66.3749 54.7168 66.3097 55.0429L68.7229 56.2387C68.7229 56.2387 73.245 57.4127 76.1365 57.1518C79.0281 56.8909 84.9851 54.9342 89.7681 52.5644C94.5511 50.1947 98.5949 46.0204 98.6818 43.8464C98.7253 43.0202 97.8992 36.6066 93.7032 32.8672Z" fill="#FFCC00"/>
<path d="M76.9192 20.1488C76.9192 20.1488 76.6583 18.3226 76.9192 17.8443C77.1801 17.3877 77.6367 16.6703 78.2237 17.192C78.8107 17.7138 79.4629 19.214 78.8759 20.6054C78.2889 21.9968 76.9192 20.1488 76.9192 20.1488Z" fill="#2D3134"/>
<path opacity="0.3" d="M10.6095 13.0178C10.6095 13.0178 24.6107 22.6925 40.6989 31.3454C56.7872 39.9982 65.2444 44.9117 65.2444 44.9117L55.3088 36.3892L19.6755 15.605L10.6095 13.0178Z" fill="white"/>
<path d="M20.0233 15.8224L55.2871 36.411C55.2871 36.411 51.8737 21.4098 39.8293 15.3658C27.7848 9.32184 20.0233 15.8224 20.0233 15.8224Z" fill="#2D3134"/>
<path d="M34.7202 4.69104C39.4162 2.47347 43.2426 1.7995 43.2426 1.34294C43.2426 0.886386 31.1764 0.299382 23.7193 4.03881C16.2622 7.77825 16.6318 10.9959 19.4581 10.648C22.2844 10.3002 26.0673 9.99582 27.2631 9.40881C28.4588 8.82181 30.7199 6.5825 34.7202 4.69104Z" fill="#2D3134"/>
<path d="M19.3276 10.148C19.045 10.148 18.371 10.0828 18.2623 9.58273C18.0884 8.84354 19.0885 6.77816 24.1541 4.25622C29.698 1.49512 37.503 1.27771 39.7641 1.27771C40.9163 1.27771 41.786 1.3212 42.373 1.38642C42.0686 1.49512 41.7425 1.60383 41.3946 1.71253C39.8293 2.21257 37.4595 2.9735 34.8289 4.23448C32.1548 5.49545 30.1981 6.95208 28.9154 7.88694C28.2414 8.36524 27.7196 8.75658 27.35 8.95225C26.4369 9.4088 23.6106 9.71318 21.1321 9.99581C20.6321 10.061 20.1321 10.1045 19.6755 10.148H19.3276Z" fill="#656565"/>
<path d="M50.9606 21.6707C50.5258 22.8664 57.5046 34.65 59.6787 35.237C61.8311 35.824 68.3316 35.6283 74.7451 32.0846C81.1587 28.5408 82.3544 25.8014 82.0283 24.8014C81.7022 23.823 69.3751 13.4526 67.3532 13.257C65.3313 13.0613 51.4824 20.214 50.9606 21.6707Z" fill="#2D3134"/>
<path opacity="0.2" d="M68.0707 47.2162C68.0707 47.2162 68.9838 45.9987 71.4405 45.7161C73.8973 45.4552 76.8975 45.6943 79.1368 47.6945C80.8109 49.1946 81.4196 49.8251 81.4196 49.8251C81.4196 49.8251 76.6801 51.3687 74.3321 51.0426C72.0058 50.7165 68.0707 47.2162 68.0707 47.2162Z" fill="white"/>
<path d="M68.5273 46.8031C68.5273 46.8031 69.3752 45.6726 71.6362 45.4335C73.8973 45.1943 76.6801 45.4117 78.7455 47.2597C80.2891 48.6294 80.8544 49.2164 80.8544 49.2164C80.8544 49.2164 76.4844 50.6513 74.3104 50.3469C72.1363 50.0425 68.5273 46.8031 68.5273 46.8031Z" fill="#E5E5E5"/>
<path opacity="0.2" d="M94.4424 42.955C94.4424 42.955 97.747 39.8678 97.5731 38.9981C97.3992 38.1068 94.8555 33.7151 94.5294 34.3673C94.2033 35.0196 93.5076 36.0631 93.7684 36.9545C94.0293 37.8459 94.5076 42.1723 94.4424 42.955Z" fill="white"/>
<path d="M94.4207 42.3462C94.4207 42.3462 97.5296 39.259 97.3774 38.3894C97.2035 37.498 94.6598 33.1064 94.3337 33.7586C94.0076 34.4108 93.3119 35.4544 93.5728 36.3458C93.8337 37.2154 94.4859 41.5418 94.4207 42.3462Z" fill="#E5E5E5"/>
<path d="M74.7234 55.369L74.6147 56.3256C74.6147 56.3256 84.3329 55.0864 90.442 51.3252C96.5295 47.5641 98.0079 44.629 98.0079 44.629C98.0079 44.629 93.3118 49.7164 87.5722 52.0644C81.55 54.4994 74.7234 55.369 74.7234 55.369Z" fill="#2D3134"/>
<path d="M80.6369 23.9969C79.5281 22.9316 77.4193 21.0619 74.7452 18.9096C70.397 15.3876 67.8533 13.757 67.2445 13.7135H67.2228C66.3314 13.7135 62.7877 15.1919 58.8308 17.2355C54.287 19.5618 51.852 21.2141 51.5042 21.7142C51.5476 22.3229 52.7434 24.9101 54.9609 28.4756C57.4177 32.4107 59.2004 34.3673 59.7874 34.5413C60.1135 34.6282 60.5266 34.6935 61.0049 34.7369C63.8747 34.3021 68.8316 33.1933 73.6581 30.3453C77.7454 27.932 79.7021 25.6058 80.6369 23.9969Z" fill="#656565"/>
<path d="M23.0018 14.9962L22.5453 16.3659L36.1116 24.2796L38.2857 15.5397L38.2204 15.4528C35.3506 14.1918 32.5243 13.5613 29.7632 13.5613C26.8717 13.5831 24.5672 14.3005 23.0018 14.9962Z" fill="#656565"/>
<path d="M51.5911 33.3238L52.1346 29.9974C51.8955 29.4974 51.6563 28.9973 51.3737 28.4756C49.33 24.6057 45.7211 19.4096 40.0032 16.3441L38.6553 25.7579L51.5911 33.3238Z" fill="#656565"/>
<path opacity="0.2" d="M25.2629 21.6924C25.2629 22.3229 24.7411 22.5838 24.1106 22.2794C23.4802 21.9533 22.9584 21.1924 22.9584 20.5401C22.9584 19.8879 23.4802 19.6488 24.1106 19.9531C24.7411 20.2793 25.2629 21.0402 25.2629 21.6924Z" fill="black"/>
<path d="M22.2626 19.7357L21.7626 20.301C21.7626 20.301 25.3933 22.6707 25.7194 22.1924C26.0673 21.7359 22.2626 19.7357 22.2626 19.7357Z" fill="#FFCC00"/>
<path opacity="0.2" d="M40.7424 30.4975C40.7424 31.1279 40.2206 31.3888 39.5901 31.0845C38.9596 30.7584 38.4379 29.9974 38.4379 29.3452C38.4379 28.7147 38.9596 28.4538 39.5901 28.7582C40.2206 29.0843 40.7424 29.8452 40.7424 30.4975Z" fill="black"/>
<path d="M37.7422 28.519L37.2421 29.0843C37.2421 29.0843 40.8729 31.4541 41.199 30.9758C41.5468 30.5192 37.7422 28.519 37.7422 28.519Z" fill="#FFCC00"/>
<path opacity="0.2" d="M55.2001 36.3892C55.2001 36.411 54.8088 37.9111 54.4826 39.7373C54.1783 41.3896 54.0043 46.8683 53.9609 47.8467L36.6551 39.0851C36.6334 38.7373 36.3942 35.4979 36.3942 32.5411C36.3942 29.4322 37.1769 25.9754 37.1769 25.9536L36.9812 25.9101C36.9812 25.9536 36.1986 29.4322 36.1986 32.5411C36.1986 35.2805 36.3942 38.2807 36.4595 38.9764L27.8501 34.6282C27.6544 34.3673 25.5673 31.5193 23.5236 27.1928C21.4148 22.736 21.9148 17.0833 21.9365 17.0181L21.7409 16.9964C21.7409 17.0616 21.2191 22.7577 23.3497 27.2798C25.502 31.8019 27.6979 34.7369 27.7196 34.7587L27.7414 34.7804L54.1348 48.1728V48.0206C54.1348 47.9554 54.3305 41.5853 54.6566 39.7808C54.9827 37.9763 55.374 36.4545 55.374 36.4545L55.2001 36.3892Z" fill="black"/>
<path opacity="0.3" d="M75.8974 47.0423C75.8974 47.8249 75.2669 48.7598 74.4843 49.1511C73.7016 49.5425 73.0711 49.2164 73.0711 48.4554C73.0711 47.6728 73.7016 46.7379 74.4843 46.3466C75.2669 45.9552 75.8974 46.2596 75.8974 47.0423Z" fill="black"/>
<path opacity="0.3" d="M78.0715 47.6075C78.0715 48.1511 77.6367 48.8033 77.0931 49.0859C76.5496 49.3468 76.1148 49.1294 76.1148 48.5859C76.1148 48.0424 76.5496 47.3901 77.0931 47.1075C77.6367 46.8466 78.0715 47.064 78.0715 47.6075Z" fill="black"/>
<path d="M72.7667 48.325C72.7667 48.6076 72.5276 48.9772 72.245 49.1077C71.9623 49.2599 71.7232 49.1294 71.7232 48.8468C71.7232 48.5641 71.9623 48.1945 72.245 48.0641C72.5276 47.9119 72.7667 48.0206 72.7667 48.325Z" fill="white"/>
<path opacity="0.4" d="M75.3104 47.6293C75.3104 48.0206 74.9843 48.4989 74.6147 48.6946C74.2234 48.8902 73.919 48.7381 73.919 48.3467C73.919 47.9554 74.2451 47.4771 74.6147 47.2814C74.9843 47.0857 75.3104 47.2379 75.3104 47.6293Z" fill="white"/>
<path opacity="0.4" d="M77.7019 47.9989C77.7019 48.2815 77.4627 48.6511 77.1801 48.7815C76.8975 48.9337 76.6583 48.8033 76.6583 48.5207C76.6583 48.238 76.8975 47.8684 77.1801 47.738C77.4627 47.5858 77.7019 47.7162 77.7019 47.9989Z" fill="white"/>
<path d="M71.984 46.564C71.984 46.8466 71.7449 47.2162 71.4622 47.3467C71.1796 47.4988 70.9405 47.3684 70.9405 47.0858C70.9405 46.8031 71.1796 46.4335 71.4622 46.3031C71.7449 46.1509 71.984 46.2814 71.984 46.564Z" fill="white"/>
<path d="M95.225 35.1283C95.225 35.4109 94.9859 35.7805 94.7032 35.9109C94.4206 36.0631 94.1815 35.9327 94.1815 35.6501C94.1815 35.3674 94.4206 34.9978 94.7032 34.8674C94.9859 34.7152 95.225 34.8239 95.225 35.1283Z" fill="white"/>
<path d="M96.2034 36.4979C96.2034 36.7806 95.9643 37.1502 95.6816 37.2806C95.399 37.4328 95.1599 37.3024 95.1599 37.0197C95.1599 36.7371 95.399 36.3675 95.6816 36.2371C95.9643 36.0849 96.2034 36.2153 96.2034 36.4979Z" fill="white"/>
<path opacity="0.3" d="M96.5078 37.411C96.5078 38.085 95.9642 38.8894 95.2903 39.2155C94.6163 39.5417 94.0728 39.2808 94.0728 38.6068C94.0728 37.9328 94.6163 37.1284 95.2903 36.8023C95.9642 36.4762 96.5078 36.7588 96.5078 37.411Z" fill="black"/>
<path opacity="0.4" d="M95.7903 38.1285C95.7903 38.4764 95.5077 38.8894 95.1816 39.0634C94.8337 39.2373 94.5728 39.0851 94.5728 38.759C94.5728 38.4329 94.8555 37.9981 95.1816 37.8241C95.5077 37.6502 95.7903 37.7807 95.7903 38.1285Z" fill="white"/>
<path opacity="0.3" d="M95.5294 39.2373C95.5294 38.6938 95.0946 38.4764 94.5511 38.7373C94.3771 38.8242 94.225 38.9329 94.0945 39.0851C94.1815 39.6721 94.2684 40.2809 94.3337 40.8027C94.3989 40.7809 94.4859 40.7592 94.5728 40.7157C95.0946 40.4548 95.5294 39.7808 95.5294 39.2373Z" fill="black"/>
<path opacity="0.3" d="M68.5273 46.7814C69.5926 46.6944 72.5928 46.5422 74.4843 46.9988C76.3757 47.4554 79.6586 48.7163 80.8326 49.1946C80.7022 49.0642 80.0934 48.4554 78.7455 47.2597C76.6801 45.4117 73.8973 45.1943 71.6362 45.4335C69.5708 45.6509 68.6795 46.6075 68.5273 46.7814Z" fill="black"/>
<path d="M50.3736 31.1062C50.3736 31.1062 52.0042 31.8889 52.7434 32.8672C53.4608 33.8456 53.4608 34.3673 53.4608 34.3673C53.4608 34.3673 48.9387 35.3457 46.6994 33.9108C44.3297 32.3672 50.3736 31.1062 50.3736 31.1062Z" fill="#2D3134"/>
<path d="M62.2659 34.8891L63.0921 34.8239L70.7014 31.128L71.1144 30.367L75.7452 28.2147L75.5496 27.8451L66.701 31.7802L66.9619 32.1063L70.397 30.5844L70.2013 30.8018L62.7659 34.3673L62.2659 34.8891Z" fill="#2D3134"/>
<path d="M70.31 32.8455H71.0275L77.0932 28.3451L77.8323 26.6058L80.1586 23.6491L80.0064 23.4317L75.6365 28.4103L75.8104 28.6712L76.9845 27.6277L76.6583 28.2147L70.5057 32.4759L70.31 32.8455Z" fill="#2D3134"/>
<path d="M79.4847 47.1945L82.0066 49.4555C82.0066 49.4555 85.6591 48.7598 88.9202 47.0858C92.1814 45.4117 94.138 43.1507 94.138 43.1507L93.8771 39.846C93.8771 39.846 92.3988 42.5202 88.1375 44.629C84.3546 46.5205 79.4847 47.1945 79.4847 47.1945Z" fill="#2D3134"/>
<path opacity="0.29" d="M89.6159 51.9775C94.3771 49.586 98.4427 45.5422 98.5296 43.3681C98.5514 42.9985 98.5731 42.3897 98.0513 40.6722C98.0079 40.52 97.8122 40.4983 97.7252 40.6287C96.0512 43.0202 93.2031 46.1292 88.768 48.2598C84.1589 50.4773 78.5063 52.3688 74.1581 52.1514C73.1363 52.1079 72.9624 53.1297 72.8754 54.7386C72.8319 55.7821 73.7016 56.6518 74.7451 56.5431C78.4845 56.1735 84.485 54.5429 89.6159 51.9775Z" fill="black"/>
<path d="M8.56589 17.1051C8.56589 17.1051 9.93557 13.6048 10.6965 12.5178C11.4574 11.4307 12.3053 10.4524 12.3053 10.4524L12.0662 9.80015C12.0662 9.80015 10.4573 10.3654 10.1747 10.8437C9.87034 11.3437 8.23978 16.4094 8.23978 16.4094L8.56589 17.1051Z" fill="#CC291F"/>
<path opacity="0.2" d="M80.2239 24.6274C80.3761 24.41 80.5065 24.1926 80.6152 23.9969C79.5064 22.9316 77.3976 21.0619 74.7234 18.9096C70.3753 15.3876 67.8316 13.757 67.2228 13.7135H67.2011C66.3097 13.7135 62.7659 15.1919 58.8091 17.2355C54.2653 19.5618 51.8303 21.2141 51.4824 21.7142C51.5042 21.9098 51.6346 22.3446 51.8955 22.9316C61.1789 19.9314 71.3318 20.5184 80.2239 24.6274Z" fill="black"/>
<path d="M86.6157 50.7382V53.9124L92.3335 51.0643V47.9119L86.6157 50.7382Z" fill="#E5E5E5"/>
<path opacity="0.2" d="M94.4207 42.3462C94.4207 42.3462 97.5296 39.259 97.3774 38.3894C97.2035 37.498 94.6598 33.1064 94.3337 33.7586C94.0076 34.4108 93.3119 35.4544 93.5728 36.3458C93.8337 37.2154 94.4859 41.5418 94.4207 42.3462Z" fill="black"/>
<path d="M51.265 22.6273C50.5693 20.9097 45.7428 15.431 40.3945 12.8004C33.6549 9.49577 27.7848 9.49577 26.5891 9.6697L26.5456 9.38706C27.7631 9.21314 33.7201 9.21314 40.525 12.5395C42.8947 13.6918 45.4602 15.5832 47.7864 17.8443C49.6344 19.627 51.1345 21.5185 51.5476 22.5186L51.265 22.6273Z" fill="#2D3134"/>
<path d="M68.5055 14.1701L68.4838 14.1483C66.3097 12.5612 60.5049 8.3435 55.1566 5.7346C48.4387 2.45172 43.1991 1.4299 42.0469 1.4299V1.12553C43.2209 1.12553 48.5257 2.14735 55.2871 5.47371C60.6571 8.10435 66.4619 12.3221 68.6577 13.9092L68.6795 13.9309L68.5055 14.1701Z" fill="#2D3134"/>
<path d="M28.2631 28.3016V30.4757L30.4371 31.5628V29.3887L28.2631 28.3016Z" fill="#2D3134"/>
<path d="M32.6113 28.3016L30.4372 27.2146V29.3887L32.6113 30.4757V28.3016Z" fill="#2D3134"/>
<path d="M30.4372 33.7368L32.6113 34.8239V32.6498L30.4372 31.5627V33.7368Z" fill="#2D3134"/>
<path d="M32.6113 30.4757V32.6498L34.7854 33.7368V31.5628L32.6113 30.4757Z" fill="#2D3134"/>
<path d="M36.9594 30.4757L34.7853 29.3887V31.5627L36.9594 32.6498V30.4757Z" fill="#2D3134"/>
<path d="M34.7853 35.9109L36.9594 36.998V34.8239L34.7853 33.7368V35.9109Z" fill="#2D3134"/>
<path d="M36.9594 32.6498V34.8239L39.1335 35.9109V33.7368L36.9594 32.6498Z" fill="#2D3134"/>
<path d="M41.3076 32.6498L39.1335 31.5627V33.7368L41.3076 34.8239V32.6498Z" fill="#2D3134"/>
<path d="M39.1335 38.085L41.3076 39.1721V36.998L39.1335 35.9109V38.085Z" fill="#2D3134"/>
<path d="M41.3076 34.8239V36.998L43.4817 38.085V35.9109L41.3076 34.8239Z" fill="#2D3134"/>
<path d="M50.0039 39.1721V41.3461L52.178 42.4332V40.2591L50.0039 39.1721Z" fill="#2D3134"/>
<path d="M50.004 36.998L47.8299 35.9109V38.085L50.004 39.1721V36.998Z" fill="#2D3134"/>
<path d="M47.8299 42.4332L50.004 43.5202V41.3461L47.8299 40.2591V42.4332Z" fill="#2D3134"/>
<path d="M45.6558 36.998V39.1721L47.8298 40.2591V38.085L45.6558 36.998Z" fill="#2D3134"/>
<path d="M45.6558 34.8239L43.4817 33.7368V35.9109L45.6558 36.998V34.8239Z" fill="#2D3134"/>
<path d="M43.4817 40.2591L45.6558 41.3461V39.1721L43.4817 38.085V40.2591Z" fill="#2D3134"/>
<path d="M45.221 12.8656L55.6566 7.6478L51.7432 5.69112L41.525 10.9089L45.221 12.8656Z" fill="#2D3134"/>
<path d="M50.8953 3.60399L44.1557 6.97383C43.8513 7.12601 43.6121 7.36516 43.4599 7.69128L42.1555 10.4741L45.1992 11.996L54.7652 7.21298L53.2651 4.4084C53.1129 4.10403 52.852 3.86488 52.5259 3.73444L52.1346 3.56051C51.765 3.40832 51.3084 3.40832 50.8953 3.60399Z" fill="#E5E5E5"/>
<path opacity="0.11" d="M44.8949 7.71302L43.8078 7.23472C43.6774 7.36517 43.5687 7.49561 43.5035 7.66954L42.199 10.4524L45.2427 11.9742V8.21306C45.221 8.01739 45.0905 7.79999 44.8949 7.71302Z" fill="black"/>
<path opacity="0.29" d="M53.2868 4.4084C53.1999 4.25622 53.0912 4.10403 52.9607 3.99533L45.8297 7.56083C45.4601 7.73476 45.2427 8.1261 45.2427 8.51743V11.996L54.8087 7.21298L53.2868 4.4084Z" fill="black"/>
<path d="M53.0477 7.21298L46.5254 10.4741V8.30003L52.1781 5.47371L53.0477 7.21298Z" fill="#2D3134"/>
<path opacity="0.11" d="M69.1795 49.1294C67.6576 47.4119 58.9613 38.2807 56.7002 34.7152C53.7435 30.0844 48.917 18.7574 40.025 14.5179C31.1112 10.2784 21.0234 12.0829 17.9797 12.3003C16.1317 12.409 13.2619 11.7351 11.2618 11.1698C9.95732 13.1482 8.9355 15.0614 8.26154 16.4311L7.9789 17.3442C7.47886 18.9748 7.69627 20.7575 8.56591 22.2142C9.3051 23.4534 10.24 24.8883 10.9357 25.671C11.5444 26.3449 12.2836 27.0624 12.9141 27.6711V27.519C12.9141 25.2144 14.262 23.736 16.3491 23.736C17.1753 23.736 18.0667 23.9752 18.9798 24.4318C22.1322 25.9971 24.6759 29.8452 24.6759 32.9977C24.6759 33.4107 24.6324 33.8021 24.5455 34.1717L54.7435 49.2598C54.7218 49.0207 54.7001 48.7815 54.7001 48.5641C54.7001 46.2596 56.048 44.7812 58.1351 44.7812C58.9613 44.7812 59.8526 45.0204 60.7658 45.4769C63.9182 47.0423 66.4619 50.8904 66.4619 54.0428C66.4619 54.4124 66.4184 54.7385 66.3532 55.0647L68.7664 56.2604C68.7664 56.2604 70.0274 56.5865 71.6362 56.8691C71.2449 53.6732 70.4405 50.5643 69.1795 49.1294Z" fill="black"/>
</svg>
