<svg width="52" height="62" viewBox="0 0 52 62" fill="none" xmlns="http://www.w3.org/2000/svg">
<path d="M7.89439 25.974H8.22671H10.3212L8.16885 16.0897H2.71216L5.46992 24.2354C5.82208 25.2753 6.79658 25.974 7.89439 25.974ZM17.1303 25.974H19.2258H19.5571C20.6559 25.974 21.6295 25.2753 21.9816 24.2359L24.7403 16.0897H19.2828L17.1303 25.974Z" fill="#FF9900"/>
<path d="M12.2956 25.974H15.156L17.3085 16.0897H10.1432L12.2956 25.974Z" fill="#FF9900"/>
<path d="M20.0704 10.1792H15.3165V7.01537C15.3165 6.483 14.8852 6.0512 14.3523 6.0512C13.8194 6.0512 13.3882 6.48286 13.3882 7.01537V10.179H12.5332H9.74999V0.964169C9.74999 0.431796 9.31875 0 8.78582 0C8.2529 0 7.82166 0.431658 7.82166 0.964169V10.1792H7.38104L3.60924 14.1614H23.843L20.0704 10.1792ZM20.19 39.1358V43.3077H46.2386C46.2477 43.3077 46.2552 43.3126 46.2643 43.3129H47.2272C48.3787 43.3129 49.3155 42.376 49.3155 41.2241C49.3155 40.0725 48.3786 39.1358 47.2272 39.1358H20.19Z" fill="#FF9900"/>
<path d="M50.6849 60.0717H45.276V45.2433H20.1891V60.0718H18.2608V44.2695C18.2608 44.2695 18.2608 44.2599 18.2608 44.2502V27.8983H9.18826V60.0717H0.964168C0.433861 60.0717 0 60.5055 0 61.0358C0 61.5661 0.433861 62 0.964168 62H50.6847C51.215 62 51.6489 61.5661 51.6489 61.0358C51.6489 60.5055 51.215 60.0717 50.6849 60.0717ZM40.4167 49.7168C40.4167 49.1769 40.8409 48.7527 41.3809 48.7527C41.9112 48.7527 42.345 49.1769 42.345 49.7168V55.5885C42.345 56.1188 41.9112 56.5527 41.3809 56.5527C40.8409 56.5527 40.4167 56.1188 40.4167 55.5885V49.7168ZM36.0877 49.7168C36.0877 49.1769 36.5216 48.7527 37.0519 48.7527C37.5822 48.7527 38.0161 49.1769 38.0161 49.7168V55.5885C38.0161 56.1188 37.5822 56.5527 37.0519 56.5527C36.5216 56.5527 36.0877 56.1188 36.0877 55.5885V49.7168ZM31.7684 49.7168C31.7684 49.1769 32.1926 48.7527 32.7326 48.7527C33.2629 48.7527 33.6967 49.1769 33.6967 49.7168V55.5885C33.6967 56.1188 33.2629 56.5527 32.7326 56.5527C32.1926 56.5527 31.7684 56.1188 31.7684 55.5885V49.7168ZM27.4394 49.7168C27.4394 49.1769 27.8733 48.7527 28.4036 48.7527C28.9435 48.7527 29.3677 49.1769 29.3677 49.7168V55.5885C29.3677 56.1188 28.9435 56.5527 28.4036 56.5527C27.8733 56.5527 27.4394 56.1188 27.4394 55.5885V49.7168ZM23.1201 49.7168C23.1201 49.1769 23.5443 48.7527 24.0842 48.7527C24.6145 48.7527 25.0484 49.1769 25.0484 49.7168V55.5885C25.0484 56.1188 24.6145 56.5527 24.0842 56.5527C23.5443 56.5527 23.1201 56.1188 23.1201 55.5885V49.7168ZM14.6936 53.6891C14.6936 54.2194 14.2597 54.6533 13.7294 54.6533C13.1895 54.6533 12.7652 54.2194 12.7652 53.6891V51.5777C12.7652 51.0473 13.1895 50.6135 13.7294 50.6135C14.2597 50.6135 14.6936 51.0473 14.6936 51.5777V53.6891ZM14.6936 45.0408C14.6936 45.5807 14.2597 46.005 13.7294 46.005C13.1895 46.005 12.7652 45.5807 12.7652 45.0408V42.9293C12.7652 42.399 13.1895 41.9652 13.7294 41.9652C14.2597 41.9652 14.6936 42.399 14.6936 42.9293V45.0408ZM14.6936 36.3925C14.6936 36.9324 14.2597 37.3566 13.7294 37.3566C13.1895 37.3566 12.7652 36.9324 12.7652 36.3925V34.281C12.7652 33.7507 13.1895 33.3169 13.7294 33.3169C14.2597 33.3169 14.6936 33.7507 14.6936 34.281V36.3925ZM31.5563 27.8117C31.566 27.8213 31.5853 27.8213 31.5949 27.831C32.0288 28.1973 32.829 28.3516 33.8414 28.3516C35.5286 28.3516 37.7654 27.9467 39.8383 27.4743L39.5202 28.2457L38.3054 28.4577C37.7847 28.5542 37.4377 29.0555 37.5245 29.5762C37.6113 30.039 38.0162 30.3764 38.479 30.3764C38.5272 30.3764 38.5851 30.3668 38.6429 30.3571L40.388 30.0486C40.7158 29.9908 40.9859 29.7689 41.1111 29.4605L42.1428 26.8959C43.9843 26.4041 45.3245 25.9799 45.3629 25.9606C46.8478 25.411 48.5543 23.6081 48.5543 21.8823C48.5543 21.6027 48.506 21.3135 48.4001 21.0435C48.0627 20.1275 47.1564 19.4623 45.8548 19.1923C44.8424 18.9706 43.7048 19.0187 42.8853 19.3273C42.8467 19.3466 41.5162 19.9155 39.7614 20.7736L35.635 19.7226C35.3746 19.6647 35.095 19.7033 34.8636 19.8576L33.4848 20.7639C33.0413 21.0531 32.9161 21.6509 33.2053 22.0945C33.5041 22.5476 34.1019 22.6632 34.5454 22.374L35.5675 21.699L37.1775 22.104C35.1529 23.2127 33.1185 24.4853 32.0387 25.6424L30.7178 24.4372C30.3225 24.0805 29.7151 24.0998 29.3487 24.4951C28.992 24.8904 29.021 25.5075 29.4162 25.8642L31.5563 27.8117Z" fill="#FF9900"/>
</svg>
