<svg width="46" height="45" viewBox="0 0 46 45" fill="none" xmlns="http://www.w3.org/2000/svg">
<g filter="url(#filter0_d_7_88)">
<path d="M17.8604 12.4048C17.3931 12.8671 16.9386 13.3697 16.7581 13.7307C16.2197 14.8076 17.0274 17.7691 19.9889 20.9999C22.3581 23.5845 25.2838 24.6974 26.989 24.8769C27.8944 24.9722 28.7492 24.2527 29.3518 23.5568C29.9312 22.8879 29.7977 21.91 29.1823 21.2741L28.5872 20.6592C27.7427 19.7866 26.364 19.9091 25.4663 20.7271C25.3275 20.8535 25.2025 20.9509 25.1043 21C24.2292 21.4376 20.2582 17.2308 20.5274 16.423C20.591 16.3275 20.6697 16.2283 20.7589 16.1276C21.6088 15.1685 21.8 13.6978 20.8728 12.8134L20.4753 12.4342C19.7384 11.7313 18.5843 11.6885 17.8604 12.4048Z" fill="white"/>
<path d="M17.8604 12.4048C17.3931 12.8671 16.9386 13.3697 16.7581 13.7307C16.2197 14.8076 17.0274 17.7691 19.9889 20.9999C22.3581 23.5845 25.2838 24.6974 26.989 24.8769C27.8944 24.9722 28.7492 24.2527 29.3518 23.5568C29.9312 22.8879 29.7977 21.91 29.1823 21.2741L28.5872 20.6592C27.7427 19.7866 26.364 19.9091 25.4663 20.7271C25.3275 20.8535 25.2025 20.9509 25.1043 21C24.2292 21.4376 20.2582 17.2308 20.5274 16.423C20.591 16.3275 20.6697 16.2283 20.7589 16.1276C21.6088 15.1685 21.8 13.6978 20.8728 12.8134L20.4753 12.4342C19.7384 11.7313 18.5843 11.6885 17.8604 12.4048Z" stroke="#FF9900" stroke-width="1.5"/>
</g>
<path fill-rule="evenodd" clip-rule="evenodd" d="M24.5659 9.76923C24.0136 9.76923 23.5659 10.2169 23.5659 10.7692C23.5659 11.3215 24.0136 11.7692 24.5659 11.7692C25.5559 11.7692 26.8674 12.3954 27.9746 13.4718C29.0778 14.5444 29.7582 15.8503 29.7582 16.9615C29.7582 17.5138 30.2059 17.9615 30.7582 17.9615C31.3105 17.9615 31.7582 17.5138 31.7582 16.9615C31.7582 15.1112 30.6886 13.321 29.3687 12.0378C28.0528 10.7584 26.2682 9.76923 24.5659 9.76923ZM24.5659 12.4615C24.0136 12.4615 23.5659 12.9092 23.5659 13.4615C23.5659 14.0138 24.0136 14.4615 24.5659 14.4615L24.5659 14.4615C24.5678 14.4616 24.6132 14.4634 24.7063 14.4855C24.7963 14.5069 24.9106 14.5423 25.0423 14.5954C25.3069 14.7018 25.6129 14.8674 25.9064 15.0942C26.4921 15.5468 26.9748 16.1967 27.072 17.072C27.133 17.6209 27.6274 18.0164 28.1763 17.9554C28.7252 17.8944 29.1208 17.4 29.0598 16.8511C28.8878 15.3032 28.0243 14.2032 27.1293 13.5116C26.6823 13.1662 26.2143 12.9111 25.789 12.74C25.3834 12.5767 24.9462 12.4615 24.5659 12.4615Z" fill="#FF9900"/>
<defs>
<filter id="filter0_d_7_88" x="0.85257" y="0.136856" width="44.6208" height="44.4987" filterUnits="userSpaceOnUse" color-interpolation-filters="sRGB">
<feFlood flood-opacity="0" result="BackgroundImageFix"/>
<feColorMatrix in="SourceAlpha" type="matrix" values="0 0 0 0 0 0 0 0 0 0 0 0 0 0 0 0 0 0 127 0" result="hardAlpha"/>
<feOffset dy="4"/>
<feGaussianBlur stdDeviation="7.5"/>
<feColorMatrix type="matrix" values="0 0 0 0 0 0 0 0 0 0 0 0 0 0 0 0 0 0 0.15 0"/>
<feBlend mode="normal" in2="BackgroundImageFix" result="effect1_dropShadow_7_88"/>
<feBlend mode="normal" in="SourceGraphic" in2="effect1_dropShadow_7_88" result="shape"/>
</filter>
</defs>
</svg>
