<svg width="12" height="15" viewBox="0 0 12 15" fill="none" xmlns="http://www.w3.org/2000/svg">
<path d="M5.83333 6.66667C6.4926 6.66667 7.13707 6.47117 7.68523 6.1049C8.2334 5.73863 8.66064 5.21803 8.91293 4.60895C9.16522 3.99986 9.23123 3.32964 9.10262 2.68303C8.974 2.03643 8.65653 1.44249 8.19035 0.976312C7.72418 0.510137 7.13024 0.192668 6.48363 0.0640506C5.83703 -0.0645668 5.16681 0.00144427 4.55772 0.253736C3.94863 0.506028 3.42804 0.93327 3.06177 1.48143C2.6955 2.0296 2.5 2.67406 2.5 3.33333C2.5 4.21739 2.85119 5.06524 3.47631 5.69036C4.10143 6.31548 4.94928 6.66667 5.83333 6.66667ZM10.8333 15C11.0543 15 11.2663 14.9122 11.4226 14.7559C11.5789 14.5996 11.6667 14.3877 11.6667 14.1667C11.6667 12.6196 11.0521 11.1358 9.95812 10.0419C8.86416 8.94792 7.38043 8.33333 5.83333 8.33333C4.28624 8.33333 2.80251 8.94792 1.70854 10.0419C0.614581 11.1358 2.30535e-08 12.6196 0 14.1667C0 14.3877 0.0877975 14.5996 0.244078 14.7559C0.400358 14.9122 0.612319 15 0.833333 15H10.8333Z" fill="#EDD500"/>
</svg>
