<svg width="97" height="34" viewBox="0 0 97 34" fill="none" xmlns="http://www.w3.org/2000/svg">
<path d="M33.1358 24.5138C33.6937 23.4586 34.126 22.3504 34.4312 21.1912C34.8069 19.9052 35.0537 18.6389 35.2149 17.495C35.5941 14.8055 34.2103 12.7933 31.9591 12.7933C29.7082 12.7933 26.1382 12.7933 22.0519 12.7933C15.5841 12.7933 16.231 20.5736 21.7873 20.5736C24.8803 20.5736 26.7836 20.5736 26.7836 20.5736C26.3216 21.6119 25.6475 22.559 24.7504 23.4265C22.8519 25.2616 20.5863 26.1537 17.8247 26.1537H17.5289C17.5164 26.1534 17.5045 26.1525 17.492 26.1521V33.6429C19.0901 33.6751 20.1858 33.4949 20.1858 33.4949C23.8926 33.0282 27.16 31.4386 29.9247 28.7523C31.0758 27.634 32.0285 26.4261 32.7872 25.1357C32.8946 24.9648 33.0074 24.7659 33.1261 24.5329C33.1292 24.5269 33.1323 24.5204 33.1358 24.5138Z" fill="#FBB903"/>
<path d="M17.1594 26.1539C14.3978 26.1539 12.1322 25.2618 10.2336 23.4267C8.3579 21.6137 7.44611 19.4562 7.44611 16.8308C7.44611 14.2057 8.3579 12.0485 10.2336 10.2356C11.9826 8.54507 14.042 7.65452 16.5131 7.52427H17.1594C19.3887 7.52427 21.2273 8.02124 22.7582 9.04079C22.9284 9.15418 25.6472 10.7041 27.725 8.6266C29.8029 6.54876 28.5987 4.24133 27.2596 3.23615C24.9525 1.50441 22.4314 0.558572 19.6251 0.183424C19.6189 0.182174 19.6142 0.18061 19.608 0.179673C17.9821 -0.115198 14.7982 0.166241 14.7982 0.166241C11.0917 0.633224 7.82407 2.22284 5.05934 4.90947C1.70207 8.17117 0 12.1819 0 16.8305C0 21.4794 1.70207 25.4905 5.05934 28.7522C7.82407 31.4385 11.0914 33.0281 14.7982 33.4948C14.7982 33.4948 15.894 33.675 17.492 33.6428V26.152C17.4798 26.1524 17.4677 26.1533 17.4552 26.1536H17.1594V26.1539Z" fill="#288DE0"/>
<path opacity="0.2" d="M14.7982 33.4955C14.7982 33.4955 15.8939 33.6757 17.492 33.6435C19.09 33.6757 20.1858 33.4955 20.1858 33.4955C23.8926 33.0288 27.1599 31.4392 29.9247 28.7528C31.0757 27.6346 32.0284 26.4267 32.7872 25.1363C32.8946 24.9654 33.0074 24.7665 33.1261 24.5338C33.1292 24.5272 33.1323 24.5206 33.1357 24.5141C33.6936 23.4589 34.1259 22.3507 34.4311 21.1915C34.8069 19.9055 35.0537 18.6392 35.2148 17.4953C35.2461 17.2735 35.2611 17.0583 35.2689 16.8462H17.4223C17.5501 18.7357 19.0866 20.5739 21.7873 20.5739C24.8803 20.5739 26.7835 20.5739 26.7835 20.5739C26.3215 21.6122 25.6475 22.5593 24.7504 23.4267C22.8518 25.2619 20.5862 26.154 17.8246 26.154H17.5288C17.5163 26.1537 17.5045 26.1527 17.492 26.1524C17.4795 26.1527 17.4676 26.1537 17.4551 26.154H17.1593C14.3977 26.154 12.1321 25.2619 10.2336 23.4267C8.3616 21.6175 7.45013 19.4647 7.44669 16.8462H0.000579834C0.00432819 21.4885 1.70608 25.4943 5.0593 28.7525C7.82403 31.4392 11.0913 33.0288 14.7982 33.4955Z" fill="#1E1D35"/>
<path d="M87.4726 14.6623H78.9148C77.7087 14.6623 76.731 13.6846 76.731 12.4786C76.731 11.2726 77.7087 10.2949 78.9148 10.2949H78.5818C79.7878 10.2949 80.7655 9.31716 80.7655 8.11113C80.7655 6.90509 79.7878 5.9274 78.5818 5.9274H67.7072C66.5012 5.9274 65.5235 6.90509 65.5235 8.11113C65.5235 9.31716 66.5012 10.2949 67.7072 10.2949H67.3458C66.1398 10.2949 65.1621 11.2726 65.1621 12.4786C65.1621 13.6846 66.1398 14.6623 67.3458 14.6623H67.7072C66.5012 14.6623 65.5235 15.64 65.5235 16.8461C65.5235 18.0521 66.5012 19.0298 67.7072 19.0298C66.5012 19.0298 65.5235 20.0075 65.5235 21.2135C65.5235 22.4195 66.5012 23.3972 67.7072 23.3972H65.8112C64.6051 23.3972 63.6274 24.3749 63.6274 25.581C63.6274 26.787 64.6051 27.7647 65.8112 27.7647H77.4126C78.6187 27.7647 79.5964 26.787 79.5964 25.581C79.5964 24.3749 78.6187 23.3972 77.4126 23.3972H73.1301C71.9241 23.3972 70.9464 22.4195 70.9464 21.2135C70.9464 20.0075 71.9241 19.0298 73.1301 19.0298H87.4723C88.6783 19.0298 89.656 18.0521 89.656 16.8461C89.656 15.64 88.6786 14.6623 87.4726 14.6623Z" fill="#FBB903"/>
<path d="M84.9403 23.3973H83.6839C82.4779 23.3973 81.5002 24.375 81.5002 25.581C81.5002 26.7871 82.4779 27.7648 83.6839 27.7648H84.9403C86.1463 27.7648 87.124 26.7871 87.124 25.581C87.124 24.3753 86.1463 23.3973 84.9403 23.3973Z" fill="#FBB903"/>
<path opacity="0.2" d="M84.9403 23.3973H83.6842C82.4782 23.3973 81.5005 24.375 81.5005 25.581C81.5005 26.7871 82.4782 27.7648 83.6842 27.7648H84.9403C86.1463 27.7648 87.124 26.7871 87.124 25.581C87.124 24.375 86.1463 23.3973 84.9403 23.3973Z" fill="#1E1D35"/>
<path d="M94.816 14.6623H93.5596C92.3536 14.6623 91.3759 15.64 91.3759 16.846C91.3759 18.0521 92.3536 19.0298 93.5596 19.0298H94.816C96.022 19.0298 96.9997 18.0521 96.9997 16.846C96.9997 15.64 96.022 14.6623 94.816 14.6623Z" fill="#FBB903"/>
<path d="M66.0533 4.92191C62.7444 1.65584 58.6931 0 54.0114 0C49.33 0 45.2783 1.65584 41.9694 4.92191C38.644 8.20453 36.9579 12.2103 36.9579 16.8279C36.9579 21.47 38.644 25.4882 41.9694 28.7705C45.2783 32.0366 49.3297 33.6927 54.0114 33.6927C58.6927 33.6927 62.7441 32.0366 66.0533 28.7705C69.3787 25.4882 71.0651 21.47 71.0651 16.8279C71.0648 12.2103 69.3787 8.20453 66.0533 4.92191ZM60.6834 17.4252L54.2116 28.7137L47.7716 17.4252C47.3415 16.5071 47.0941 15.4867 47.0941 14.4056C47.0941 10.4657 50.288 7.27213 54.2275 7.27213C58.1673 7.27213 61.3609 10.466 61.3609 14.4056C61.3609 15.4863 61.1136 16.5071 60.6834 17.4252Z" fill="#288DE0"/>
<path d="M54.2275 11.0371C52.5723 11.0371 51.2304 12.379 51.2304 14.0342C51.2304 15.6894 52.5723 17.0314 54.2275 17.0314C55.8827 17.0314 57.2246 15.6894 57.2246 14.0342C57.2246 12.379 55.8827 11.0371 54.2275 11.0371Z" fill="#FBB903"/>
<path opacity="0.2" d="M60.9227 16.8461C60.8502 17.0429 60.7718 17.2365 60.6834 17.4249L54.2116 28.7134L47.7716 17.4249C47.6832 17.2365 47.6048 17.0425 47.5323 16.8461H36.9582C36.9626 21.4803 38.6484 25.4923 41.9694 28.7702C45.2783 32.0363 49.33 33.6924 54.0113 33.6924C58.6927 33.6924 62.7441 32.0363 66.0533 28.7702C66.3847 28.4429 66.6955 28.1064 66.9941 27.7647H77.4127C78.6187 27.7647 79.5964 26.787 79.5964 25.581C79.5964 24.375 78.6187 23.3973 77.4127 23.3973H73.1302C71.9241 23.3973 70.9464 22.4196 70.9464 21.2135C70.9464 20.0075 71.9241 19.0298 73.1302 19.0298H87.4723C88.6783 19.0298 89.656 18.0521 89.656 16.8461H60.9227Z" fill="#1E1D35"/>
<path opacity="0.2" d="M91.3762 16.8464C91.3762 18.0524 92.3539 19.0301 93.5599 19.0301H94.8162C96.0223 19.0301 97 18.0524 97 16.8464H91.3762Z" fill="#1E1D35"/>
</svg>
