<svg width="12" height="15" viewBox="0 0 12 15" fill="none" xmlns="http://www.w3.org/2000/svg">
<path d="M5.99998 0C4.40869 0 2.88257 0.632139 1.75735 1.75735C0.632139 2.88257 0 4.40869 0 5.99998C0 10.05 5.28748 14.625 5.51248 14.82C5.64833 14.9361 5.82122 15 5.99998 15C6.17874 15 6.35163 14.9361 6.48748 14.82C6.74998 14.625 12 10.05 12 5.99998C12 4.40869 11.3678 2.88257 10.2426 1.75735C9.11739 0.632139 7.59127 0 5.99998 0ZM5.99998 13.2375C4.40249 11.7375 1.5 8.50497 1.5 5.99998C1.5 4.80651 1.9741 3.66192 2.81801 2.81801C3.66192 1.9741 4.80651 1.5 5.99998 1.5C7.19345 1.5 8.33804 1.9741 9.18195 2.81801C10.0259 3.66192 10.5 4.80651 10.5 5.99998C10.5 8.50497 7.59748 11.745 5.99998 13.2375ZM5.99998 2.99999C5.40664 2.99999 4.82662 3.17594 4.33328 3.50558C3.83993 3.83522 3.45541 4.30376 3.22835 4.85193C3.00129 5.40011 2.94188 6.00331 3.05763 6.58525C3.17339 7.16719 3.45911 7.70174 3.87867 8.12129C4.29822 8.54085 4.83277 8.82657 5.41471 8.94233C5.99665 9.05808 6.59985 8.99867 7.14803 8.77161C7.6962 8.54455 8.16474 8.16003 8.49438 7.66669C8.82402 7.17334 8.99997 6.59332 8.99997 5.99998C8.99997 5.20433 8.6839 4.44127 8.12129 3.87867C7.55869 3.31606 6.79563 2.99999 5.99998 2.99999ZM5.99998 7.49998C5.70331 7.49998 5.4133 7.412 5.16663 7.24718C4.91996 7.08236 4.7277 6.84809 4.61417 6.574C4.50063 6.29992 4.47093 5.99832 4.52881 5.70735C4.58668 5.41638 4.72955 5.1491 4.93932 4.93932C5.1491 4.72955 5.41638 4.58668 5.70735 4.52881C5.99832 4.47093 6.29992 4.50063 6.574 4.61417C6.84809 4.7277 7.08236 4.91996 7.24718 5.16663C7.412 5.4133 7.49998 5.70331 7.49998 5.99998C7.49998 6.3978 7.34194 6.77933 7.06064 7.06064C6.77933 7.34194 6.3978 7.49998 5.99998 7.49998Z" fill="#FF9900"/>
</svg>
