<svg width="329" height="166" viewBox="0 0 329 166" fill="none" xmlns="http://www.w3.org/2000/svg">
<rect y="1" width="329" height="165" rx="22" fill="#FF9900"/>
<ellipse cx="130.686" cy="147.667" rx="3.65555" ry="3.66666" fill="black"/>
<ellipse cx="145.308" cy="147.667" rx="3.65556" ry="3.66666" fill="black"/>
<rect x="156.275" y="144" width="16.45" height="7.33333" rx="3.66666" fill="#F5F9FF"/>
<ellipse cx="183.692" cy="147.667" rx="3.65556" ry="3.66666" fill="black"/>
<ellipse cx="198.314" cy="147.667" rx="3.65556" ry="3.66666" fill="black"/>
<path fill-rule="evenodd" clip-rule="evenodd" d="M163.586 166C163.586 166 212.022 154.542 220.247 150.875C228.472 147.208 223.903 128.417 233.042 128.417C242.181 128.417 265.485 147.208 279.65 147.208C293.815 147.208 300.669 104.583 306.61 104.583C312.55 104.583 316.206 128.417 321.689 128.417C327.172 128.417 329 95.875 329 95.875V146C329 157.046 320.046 166 309 166H163.586Z" fill="#FFC46B"/>
<path fill-rule="evenodd" clip-rule="evenodd" d="M0 60.125V21C0 9.9543 8.95431 1 20 1H142.567C142.567 1 119.262 36.75 107.382 30.7917C95.5014 24.8333 92.2243 12.9605 75.8528 17.9583C59.4812 22.9561 64.9116 43.7229 54.8333 46.8333C44.755 49.9438 31.9861 29.875 25.5889 34C19.1917 38.125 17.6859 63.8721 14.6222 67C11.5585 70.1279 0 60.125 0 60.125Z" fill="#FFC46B"/>
<path d="M162.279 1.79656L146.615 26.7868" stroke="#FFC46B" stroke-width="2" stroke-linecap="round" stroke-linejoin="round"/>
<path d="M160.075 23.2372L147.759 41.442" stroke="#FFC46B" stroke-width="2" stroke-linecap="round" stroke-linejoin="round"/>
<path d="M184.318 71.2711C184.2 71.0335 183.957 70.8833 183.692 70.8833C183.426 70.8833 183.184 71.0335 183.065 71.2711L179.41 78.6044C179.301 78.8214 179.313 79.0789 179.441 79.285C179.568 79.4912 179.794 79.6167 180.036 79.6167H187.347C187.59 79.6167 187.815 79.4912 187.942 79.285C188.07 79.0789 188.082 78.8214 187.974 78.6044L184.318 71.2711Z" stroke="#FFC46B" stroke-width="1.4" stroke-linejoin="round"/>
<ellipse cx="205.625" cy="34" rx="18.2778" ry="4.58333" stroke="#FFC46B" stroke-width="2"/>
<path d="M27.2793 65V57.63L27.9833 59.588L21.1853 49.49H25.1453L29.4133 56.134H28.7093L32.9773 49.49H36.8053L30.0293 59.588L30.7113 57.63V65H27.2793ZM40.8234 65.242C39.6354 65.242 38.6014 65.0073 37.7214 64.538C36.8561 64.054 36.1814 63.3793 35.6974 62.514C35.2281 61.6487 34.9934 60.6147 34.9934 59.412C34.9934 58.224 35.2281 57.1973 35.6974 56.332C36.1814 55.4667 36.8561 54.7993 37.7214 54.33C38.6014 53.8607 39.6354 53.626 40.8234 53.626C42.0114 53.626 43.0454 53.8607 43.9254 54.33C44.8054 54.7993 45.4801 55.4667 45.9494 56.332C46.4334 57.1973 46.6754 58.224 46.6754 59.412C46.6754 60.6147 46.4334 61.6487 45.9494 62.514C45.4801 63.3793 44.8054 64.054 43.9254 64.538C43.0454 65.0073 42.0114 65.242 40.8234 65.242ZM40.8234 62.734C41.5861 62.734 42.1874 62.4627 42.6274 61.92C43.0821 61.3773 43.3094 60.5413 43.3094 59.412C43.3094 58.2827 43.0821 57.454 42.6274 56.926C42.1874 56.398 41.5861 56.134 40.8234 56.134C40.0607 56.134 39.4521 56.398 38.9974 56.926C38.5574 57.454 38.3374 58.2827 38.3374 59.412C38.3374 60.5413 38.5574 61.3773 38.9974 61.92C39.4521 62.4627 40.0607 62.734 40.8234 62.734ZM52.8688 65.242C51.4754 65.242 50.4414 64.8607 49.7668 64.098C49.0921 63.3207 48.7548 62.1473 48.7548 60.578V53.846H52.0768V60.578C52.0768 61.282 52.2161 61.8027 52.4948 62.14C52.7881 62.4773 53.2354 62.646 53.8368 62.646C54.4968 62.646 55.0394 62.4187 55.4648 61.964C55.9048 61.4947 56.1248 60.8713 56.1248 60.094V53.846H59.4468V65H56.2128V62.866H56.5208C56.1834 63.614 55.6994 64.2007 55.0688 64.626C54.4528 65.0367 53.7194 65.242 52.8688 65.242ZM62.162 65V56.794C62.162 56.31 62.1474 55.8187 62.118 55.32C62.1034 54.8213 62.0667 54.33 62.008 53.846H65.198L65.572 57.102H65.066C65.2127 56.31 65.4474 55.6573 65.77 55.144C66.1074 54.6307 66.518 54.2493 67.002 54C67.5007 53.7507 68.0654 53.626 68.696 53.626C68.9747 53.626 69.1947 53.6407 69.356 53.67C69.5174 53.6847 69.6787 53.7213 69.84 53.78L69.818 56.706C69.51 56.574 69.246 56.4933 69.026 56.464C68.8207 56.42 68.5567 56.398 68.234 56.398C67.618 56.398 67.1047 56.5153 66.694 56.75C66.298 56.9847 65.9974 57.3293 65.792 57.784C65.6014 58.2387 65.506 58.7887 65.506 59.434V65H62.162ZM77.4379 65V53.846H80.7599V65H77.4379ZM77.3059 52.02V48.918H80.8699V52.02H77.3059ZM83.4751 65V56.75C83.4751 56.2807 83.4604 55.804 83.4311 55.32C83.4017 54.8213 83.3577 54.33 83.2991 53.846H86.4891L86.7311 55.914H86.4671C86.7897 55.21 87.2664 54.6527 87.8971 54.242C88.5277 53.8313 89.2757 53.626 90.1411 53.626C90.9917 53.626 91.7031 53.8313 92.2751 54.242C92.8617 54.638 93.2797 55.2613 93.5291 56.112H93.1771C93.4997 55.3493 94.0131 54.748 94.7171 54.308C95.4211 53.8533 96.2204 53.626 97.1151 53.626C98.3764 53.626 99.3151 54 99.9311 54.748C100.547 55.496 100.855 56.6693 100.855 58.268V65H97.5331V58.378C97.5331 57.6007 97.4084 57.0433 97.1591 56.706C96.9097 56.3687 96.5064 56.2 95.9491 56.2C95.2891 56.2 94.7684 56.4347 94.3871 56.904C94.0057 57.3733 93.8151 58.0187 93.8151 58.84V65H90.4931V58.378C90.4931 57.6007 90.3684 57.0433 90.1191 56.706C89.8697 56.3687 89.4664 56.2 88.9091 56.2C88.2491 56.2 87.7284 56.4347 87.3471 56.904C86.9804 57.3733 86.7971 58.0187 86.7971 58.84V65H83.4751ZM107.854 65.242C106.886 65.242 106.035 65.0073 105.302 64.538C104.569 64.0687 103.997 63.4013 103.586 62.536C103.175 61.6707 102.97 60.6293 102.97 59.412C102.97 58.2093 103.175 57.1753 103.586 56.31C103.997 55.4447 104.569 54.7847 105.302 54.33C106.035 53.8607 106.886 53.626 107.854 53.626C108.749 53.626 109.548 53.846 110.252 54.286C110.971 54.7113 111.44 55.2907 111.66 56.024H111.418L111.682 53.846H114.872C114.828 54.33 114.784 54.8213 114.74 55.32C114.711 55.804 114.696 56.2807 114.696 56.75V65H111.396L111.374 62.91H111.638C111.403 63.614 110.934 64.1787 110.23 64.604C109.526 65.0293 108.734 65.242 107.854 65.242ZM108.866 62.734C109.629 62.734 110.245 62.4627 110.714 61.92C111.183 61.3773 111.418 60.5413 111.418 59.412C111.418 58.2827 111.183 57.454 110.714 56.926C110.245 56.398 109.629 56.134 108.866 56.134C108.103 56.134 107.487 56.398 107.018 56.926C106.549 57.454 106.314 58.2827 106.314 59.412C106.314 60.5413 106.541 61.3773 106.996 61.92C107.465 62.4627 108.089 62.734 108.866 62.734ZM122.722 69.928C121.652 69.928 120.698 69.818 119.862 69.598C119.026 69.3927 118.278 69.0773 117.618 68.652L118.256 66.276C118.667 66.54 119.1 66.7527 119.554 66.914C120.024 67.09 120.5 67.2147 120.984 67.288C121.483 67.376 121.974 67.42 122.458 67.42C123.441 67.42 124.174 67.1853 124.658 66.716C125.142 66.2467 125.384 65.5793 125.384 64.714V62.404H125.604C125.37 63.108 124.9 63.6727 124.196 64.098C123.492 64.5233 122.7 64.736 121.82 64.736C120.823 64.736 119.95 64.5087 119.202 64.054C118.469 63.5993 117.897 62.954 117.486 62.118C117.076 61.282 116.87 60.2993 116.87 59.17C116.87 58.0407 117.076 57.058 117.486 56.222C117.897 55.386 118.469 54.748 119.202 54.308C119.95 53.8533 120.823 53.626 121.82 53.626C122.715 53.626 123.5 53.8387 124.174 54.264C124.864 54.6747 125.326 55.2247 125.56 55.914L125.384 55.826L125.604 53.846H128.816C128.758 54.33 128.714 54.8213 128.684 55.32C128.655 55.804 128.64 56.2807 128.64 56.75V64.34C128.64 66.144 128.134 67.5227 127.122 68.476C126.11 69.444 124.644 69.928 122.722 69.928ZM122.81 62.228C123.588 62.228 124.204 61.964 124.658 61.436C125.113 60.908 125.34 60.1527 125.34 59.17C125.34 58.1873 125.113 57.4393 124.658 56.926C124.204 56.398 123.588 56.134 122.81 56.134C122.004 56.134 121.366 56.398 120.896 56.926C120.442 57.4393 120.214 58.1873 120.214 59.17C120.214 60.1527 120.442 60.908 120.896 61.436C121.366 61.964 122.004 62.228 122.81 62.228ZM136.952 65.242C135.016 65.242 133.506 64.7213 132.42 63.68C131.335 62.6387 130.792 61.2233 130.792 59.434C130.792 58.2753 131.02 57.2633 131.474 56.398C131.944 55.5327 132.589 54.858 133.41 54.374C134.246 53.8753 135.222 53.626 136.336 53.626C137.436 53.626 138.353 53.8607 139.086 54.33C139.834 54.7993 140.392 55.4593 140.758 56.31C141.14 57.146 141.33 58.1213 141.33 59.236V60.006H133.52V58.356H138.91L138.536 58.664C138.536 57.74 138.346 57.0433 137.964 56.574C137.598 56.09 137.062 55.848 136.358 55.848C135.581 55.848 134.98 56.134 134.554 56.706C134.144 57.278 133.938 58.0993 133.938 59.17V59.522C133.938 60.6073 134.202 61.414 134.73 61.942C135.273 62.47 136.05 62.734 137.062 62.734C137.664 62.734 138.228 62.6607 138.756 62.514C139.299 62.3527 139.812 62.1033 140.296 61.766L141.22 63.966C140.663 64.3767 140.018 64.692 139.284 64.912C138.566 65.132 137.788 65.242 136.952 65.242ZM154.949 69.928C153.878 69.928 152.925 69.818 152.089 69.598C151.253 69.3927 150.505 69.0773 149.845 68.652L150.483 66.276C150.894 66.54 151.326 66.7527 151.781 66.914C152.25 67.09 152.727 67.2147 153.211 67.288C153.71 67.376 154.201 67.42 154.685 67.42C155.668 67.42 156.401 67.1853 156.885 66.716C157.369 66.2467 157.611 65.5793 157.611 64.714V62.404H157.831C157.596 63.108 157.127 63.6727 156.423 64.098C155.719 64.5233 154.927 64.736 154.047 64.736C153.05 64.736 152.177 64.5087 151.429 64.054C150.696 63.5993 150.124 62.954 149.713 62.118C149.302 61.282 149.097 60.2993 149.097 59.17C149.097 58.0407 149.302 57.058 149.713 56.222C150.124 55.386 150.696 54.748 151.429 54.308C152.177 53.8533 153.05 53.626 154.047 53.626C154.942 53.626 155.726 53.8387 156.401 54.264C157.09 54.6747 157.552 55.2247 157.787 55.914L157.611 55.826L157.831 53.846H161.043C160.984 54.33 160.94 54.8213 160.911 55.32C160.882 55.804 160.867 56.2807 160.867 56.75V64.34C160.867 66.144 160.361 67.5227 159.349 68.476C158.337 69.444 156.87 69.928 154.949 69.928ZM155.037 62.228C155.814 62.228 156.43 61.964 156.885 61.436C157.34 60.908 157.567 60.1527 157.567 59.17C157.567 58.1873 157.34 57.4393 156.885 56.926C156.43 56.398 155.814 56.134 155.037 56.134C154.23 56.134 153.592 56.398 153.123 56.926C152.668 57.4393 152.441 58.1873 152.441 59.17C152.441 60.1527 152.668 60.908 153.123 61.436C153.592 61.964 154.23 62.228 155.037 62.228ZM168.849 65.242C167.661 65.242 166.627 65.0073 165.747 64.538C164.881 64.054 164.207 63.3793 163.723 62.514C163.253 61.6487 163.019 60.6147 163.019 59.412C163.019 58.224 163.253 57.1973 163.723 56.332C164.207 55.4667 164.881 54.7993 165.747 54.33C166.627 53.8607 167.661 53.626 168.849 53.626C170.037 53.626 171.071 53.8607 171.951 54.33C172.831 54.7993 173.505 55.4667 173.975 56.332C174.459 57.1973 174.701 58.224 174.701 59.412C174.701 60.6147 174.459 61.6487 173.975 62.514C173.505 63.3793 172.831 64.054 171.951 64.538C171.071 65.0073 170.037 65.242 168.849 65.242ZM168.849 62.734C169.611 62.734 170.213 62.4627 170.653 61.92C171.107 61.3773 171.335 60.5413 171.335 59.412C171.335 58.2827 171.107 57.454 170.653 56.926C170.213 56.398 169.611 56.134 168.849 56.134C168.086 56.134 167.477 56.398 167.023 56.926C166.583 57.454 166.363 58.2827 166.363 59.412C166.363 60.5413 166.583 61.3773 167.023 61.92C167.477 62.4627 168.086 62.734 168.849 62.734ZM182.456 65.242C180.52 65.242 179.009 64.7213 177.924 63.68C176.839 62.6387 176.296 61.2233 176.296 59.434C176.296 58.2753 176.523 57.2633 176.978 56.398C177.447 55.5327 178.093 54.858 178.914 54.374C179.75 53.8753 180.725 53.626 181.84 53.626C182.94 53.626 183.857 53.8607 184.59 54.33C185.338 54.7993 185.895 55.4593 186.262 56.31C186.643 57.146 186.834 58.1213 186.834 59.236V60.006H179.024V58.356H184.414L184.04 58.664C184.04 57.74 183.849 57.0433 183.468 56.574C183.101 56.09 182.566 55.848 181.862 55.848C181.085 55.848 180.483 56.134 180.058 56.706C179.647 57.278 179.442 58.0993 179.442 59.17V59.522C179.442 60.6073 179.706 61.414 180.234 61.942C180.777 62.47 181.554 62.734 182.566 62.734C183.167 62.734 183.732 62.6607 184.26 62.514C184.803 62.3527 185.316 62.1033 185.8 61.766L186.724 63.966C186.167 64.3767 185.521 64.692 184.788 64.912C184.069 65.132 183.292 65.242 182.456 65.242ZM193.056 65.242C192.059 65.242 191.149 65.132 190.328 64.912C189.507 64.692 188.81 64.384 188.238 63.988L189.096 61.788C189.668 62.14 190.299 62.4187 190.988 62.624C191.692 62.8293 192.389 62.932 193.078 62.932C193.723 62.932 194.2 62.8293 194.508 62.624C194.816 62.4187 194.97 62.14 194.97 61.788C194.97 61.4947 194.867 61.2673 194.662 61.106C194.471 60.9447 194.171 60.8273 193.76 60.754L191.494 60.336C190.541 60.1453 189.815 59.7933 189.316 59.28C188.817 58.7667 188.568 58.0993 188.568 57.278C188.568 56.5593 188.759 55.9287 189.14 55.386C189.536 54.8287 190.101 54.396 190.834 54.088C191.567 53.78 192.425 53.626 193.408 53.626C194.244 53.626 195.036 53.7287 195.784 53.934C196.532 54.1393 197.17 54.4547 197.698 54.88L196.796 57.014C196.341 56.6767 195.813 56.4053 195.212 56.2C194.625 55.9947 194.061 55.892 193.518 55.892C192.814 55.892 192.308 56.0093 192 56.244C191.692 56.464 191.538 56.75 191.538 57.102C191.538 57.366 191.626 57.586 191.802 57.762C191.993 57.938 192.279 58.07 192.66 58.158L194.948 58.576C195.931 58.752 196.679 59.082 197.192 59.566C197.705 60.05 197.962 60.7173 197.962 61.568C197.962 62.3453 197.757 63.0053 197.346 63.548C196.935 64.0907 196.356 64.5087 195.608 64.802C194.875 65.0953 194.024 65.242 193.056 65.242ZM206.237 65V48.808H209.559V55.936H209.229C209.581 55.188 210.101 54.616 210.791 54.22C211.48 53.824 212.272 53.626 213.167 53.626C214.472 53.626 215.447 54.0073 216.093 54.77C216.738 55.518 217.061 56.6693 217.061 58.224V65H213.739V58.378C213.739 57.6007 213.592 57.0433 213.299 56.706C213.02 56.3687 212.58 56.2 211.979 56.2C211.245 56.2 210.659 56.4273 210.219 56.882C209.779 57.3367 209.559 57.9453 209.559 58.708V65H206.237ZM225.339 65.242C223.403 65.242 221.892 64.7213 220.807 63.68C219.722 62.6387 219.179 61.2233 219.179 59.434C219.179 58.2753 219.406 57.2633 219.861 56.398C220.33 55.5327 220.976 54.858 221.797 54.374C222.633 53.8753 223.608 53.626 224.723 53.626C225.823 53.626 226.74 53.8607 227.473 54.33C228.221 54.7993 228.778 55.4593 229.145 56.31C229.526 57.146 229.717 58.1213 229.717 59.236V60.006H221.907V58.356H227.297L226.923 58.664C226.923 57.74 226.732 57.0433 226.351 56.574C225.984 56.09 225.449 55.848 224.745 55.848C223.968 55.848 223.366 56.134 222.941 56.706C222.53 57.278 222.325 58.0993 222.325 59.17V59.522C222.325 60.6073 222.589 61.414 223.117 61.942C223.66 62.47 224.437 62.734 225.449 62.734C226.05 62.734 226.615 62.6607 227.143 62.514C227.686 62.3527 228.199 62.1033 228.683 61.766L229.607 63.966C229.05 64.3767 228.404 64.692 227.671 64.912C226.952 65.132 226.175 65.242 225.339 65.242ZM231.803 65V56.794C231.803 56.31 231.788 55.8187 231.759 55.32C231.744 54.8213 231.707 54.33 231.649 53.846H234.839L235.213 57.102H234.707C234.853 56.31 235.088 55.6573 235.411 55.144C235.748 54.6307 236.159 54.2493 236.643 54C237.141 53.7507 237.706 53.626 238.337 53.626C238.615 53.626 238.835 53.6407 238.997 53.67C239.158 53.6847 239.319 53.7213 239.481 53.78L239.459 56.706C239.151 56.574 238.887 56.4933 238.667 56.464C238.461 56.42 238.197 56.398 237.875 56.398C237.259 56.398 236.745 56.5153 236.335 56.75C235.939 56.9847 235.638 57.3293 235.433 57.784C235.242 58.2387 235.147 58.7887 235.147 59.434V65H231.803ZM246.286 65.242C244.35 65.242 242.84 64.7213 241.754 63.68C240.669 62.6387 240.126 61.2233 240.126 59.434C240.126 58.2753 240.354 57.2633 240.808 56.398C241.278 55.5327 241.923 54.858 242.744 54.374C243.58 53.8753 244.556 53.626 245.67 53.626C246.77 53.626 247.687 53.8607 248.42 54.33C249.168 54.7993 249.726 55.4593 250.092 56.31C250.474 57.146 250.664 58.1213 250.664 59.236V60.006H242.854V58.356H248.244L247.87 58.664C247.87 57.74 247.68 57.0433 247.298 56.574C246.932 56.09 246.396 55.848 245.692 55.848C244.915 55.848 244.314 56.134 243.888 56.706C243.478 57.278 243.272 58.0993 243.272 59.17V59.522C243.272 60.6073 243.536 61.414 244.064 61.942C244.607 62.47 245.384 62.734 246.396 62.734C246.998 62.734 247.562 62.6607 248.09 62.514C248.633 62.3527 249.146 62.1033 249.63 61.766L250.554 63.966C249.997 64.3767 249.352 64.692 248.618 64.912C247.9 65.132 247.122 65.242 246.286 65.242Z" fill="#F5F9FF"/>
<path d="M25.6383 94.143C24.997 94.143 24.3773 94.052 23.7793 93.87C23.19 93.688 22.7133 93.4367 22.3493 93.116L22.9863 91.608C23.3763 91.894 23.788 92.1107 24.2213 92.258C24.6547 92.3967 25.101 92.466 25.5603 92.466C26.0977 92.466 26.5007 92.3663 26.7693 92.167C27.038 91.9677 27.1723 91.673 27.1723 91.283C27.1723 90.919 27.0423 90.646 26.7823 90.464C26.531 90.2733 26.154 90.178 25.6513 90.178H24.1173V88.579H25.4693C25.9027 88.579 26.2493 88.4793 26.5093 88.28C26.7693 88.072 26.8993 87.7903 26.8993 87.435C26.8993 87.0883 26.778 86.824 26.5353 86.642C26.2927 86.46 25.9417 86.369 25.4823 86.369C24.607 86.369 23.827 86.6593 23.1423 87.24L22.4923 85.758C22.8823 85.42 23.3547 85.16 23.9093 84.978C24.4727 84.7873 25.062 84.692 25.6773 84.692C26.6653 84.692 27.4367 84.913 27.9913 85.355C28.5547 85.7883 28.8363 86.395 28.8363 87.175C28.8363 87.7123 28.6847 88.176 28.3813 88.566C28.078 88.9473 27.662 89.203 27.1333 89.333V89.164C27.7573 89.268 28.2427 89.5237 28.5893 89.931C28.936 90.3383 29.1093 90.8497 29.1093 91.465C29.1093 92.297 28.7973 92.9513 28.1733 93.428C27.558 93.9047 26.713 94.143 25.6383 94.143ZM33.9662 94.143C32.7876 94.143 31.8776 93.74 31.2362 92.934C30.5949 92.128 30.2742 90.997 30.2742 89.541C30.2742 88.5183 30.4389 87.6473 30.7682 86.928C31.0976 86.2 31.5656 85.6453 32.1722 85.264C32.7876 84.8827 33.5242 84.692 34.3822 84.692C34.8762 84.692 35.3659 84.7787 35.8512 84.952C36.3452 85.1167 36.7742 85.3593 37.1382 85.68L36.4882 87.175C36.1676 86.9063 35.8252 86.707 35.4612 86.577C35.0972 86.4383 34.7289 86.369 34.3562 86.369C33.6456 86.369 33.1039 86.603 32.7312 87.071C32.3586 87.539 32.1722 88.2367 32.1722 89.164V90.009H32.0032C32.0726 89.593 32.2156 89.242 32.4322 88.956C32.6489 88.6613 32.9262 88.436 33.2642 88.28C33.6022 88.124 33.9749 88.046 34.3822 88.046C34.9022 88.046 35.3659 88.176 35.7732 88.436C36.1892 88.6873 36.5142 89.0383 36.7482 89.489C36.9822 89.931 37.0992 90.438 37.0992 91.01C37.0992 91.6167 36.9649 92.1583 36.6962 92.635C36.4276 93.103 36.0592 93.4713 35.5912 93.74C35.1319 94.0087 34.5902 94.143 33.9662 94.143ZM33.8622 92.57C34.1396 92.57 34.3822 92.5093 34.5902 92.388C34.7982 92.2667 34.9586 92.0933 35.0712 91.868C35.1839 91.6427 35.2402 91.3827 35.2402 91.088C35.2402 90.7933 35.1839 90.5377 35.0712 90.321C34.9586 90.0957 34.7982 89.9223 34.5902 89.801C34.3822 89.671 34.1396 89.606 33.8622 89.606C33.5849 89.606 33.3422 89.671 33.1342 89.801C32.9262 89.9223 32.7616 90.0957 32.6402 90.321C32.5276 90.5377 32.4712 90.7933 32.4712 91.088C32.4712 91.3827 32.5276 91.6427 32.6402 91.868C32.7616 92.0933 32.9262 92.2667 33.1342 92.388C33.3422 92.5093 33.5849 92.57 33.8622 92.57ZM41.4232 94.143C41.0158 94.143 40.6128 94.0997 40.2142 94.013C39.8155 93.9263 39.4428 93.8093 39.0962 93.662C38.7495 93.506 38.4592 93.324 38.2252 93.116L38.8622 91.608C39.2522 91.8853 39.6595 92.0977 40.0842 92.245C40.5088 92.3923 40.9422 92.466 41.3842 92.466C41.8868 92.466 42.2768 92.349 42.5542 92.115C42.8402 91.8723 42.9832 91.543 42.9832 91.127C42.9832 90.711 42.8488 90.3773 42.5802 90.126C42.3115 89.8747 41.9432 89.749 41.4752 89.749C41.1458 89.749 40.8382 89.8097 40.5522 89.931C40.2748 90.0523 40.0235 90.2387 39.7982 90.49H38.4982V84.835H44.3482V86.486H40.4092V88.969H39.9412C40.1578 88.7003 40.4438 88.4923 40.7992 88.345C41.1545 88.1977 41.5532 88.124 41.9952 88.124C42.5845 88.124 43.0958 88.2497 43.5292 88.501C43.9712 88.7437 44.3135 89.086 44.5562 89.528C44.7988 89.9613 44.9202 90.4727 44.9202 91.062C44.9202 91.6687 44.7772 92.206 44.4912 92.674C44.2138 93.1333 43.8108 93.493 43.2822 93.753C42.7622 94.013 42.1425 94.143 41.4232 94.143ZM46.1111 94V89.151C46.1111 88.865 46.1024 88.5747 46.0851 88.28C46.0764 87.9853 46.0548 87.695 46.0201 87.409H47.9051L48.1261 89.333H47.8271C47.9138 88.865 48.0524 88.4793 48.2431 88.176C48.4424 87.8727 48.6851 87.6473 48.9711 87.5C49.2658 87.3527 49.5994 87.279 49.9721 87.279C50.1368 87.279 50.2668 87.2877 50.3621 87.305C50.4574 87.3137 50.5528 87.3353 50.6481 87.37L50.6351 89.099C50.4531 89.021 50.2971 88.9733 50.1671 88.956C50.0458 88.93 49.8898 88.917 49.6991 88.917C49.3351 88.917 49.0318 88.9863 48.7891 89.125C48.5551 89.2637 48.3774 89.4673 48.2561 89.736C48.1434 90.0047 48.0871 90.3297 48.0871 90.711V94H46.1111ZM51.4688 94V87.409H53.4318V94H51.4688ZM51.3908 86.33V84.497H53.4968V86.33H51.3908ZM57.6232 94.143C57.0512 94.143 56.5442 94.0043 56.1022 93.727C55.6689 93.4497 55.3265 93.0553 55.0752 92.544C54.8325 92.0327 54.7112 91.4173 54.7112 90.698C54.7112 89.9873 54.8325 89.3763 55.0752 88.865C55.3179 88.3537 55.6602 87.9637 56.1022 87.695C56.5442 87.4177 57.0512 87.279 57.6232 87.279C58.1432 87.279 58.6069 87.4047 59.0142 87.656C59.4302 87.8987 59.7075 88.228 59.8462 88.644H59.6772V84.432H61.6402V94H59.7032V92.713H59.8722C59.7335 93.1463 59.4562 93.493 59.0402 93.753C58.6242 94.013 58.1519 94.143 57.6232 94.143ZM58.2082 92.661C58.6589 92.661 59.0229 92.5007 59.3002 92.18C59.5775 91.8593 59.7162 91.3653 59.7162 90.698C59.7162 90.0307 59.5775 89.541 59.3002 89.229C59.0229 88.917 58.6589 88.761 58.2082 88.761C57.7575 88.761 57.3892 88.917 57.1032 89.229C56.8259 89.541 56.6872 90.0307 56.6872 90.698C56.6872 91.3653 56.8259 91.8593 57.1032 92.18C57.3892 92.5007 57.7575 92.661 58.2082 92.661ZM66.5651 94.143C65.4211 94.143 64.5284 93.8353 63.8871 93.22C63.2457 92.6047 62.9251 91.7683 62.9251 90.711C62.9251 90.0263 63.0594 89.4283 63.3281 88.917C63.6054 88.4057 63.9867 88.007 64.4721 87.721C64.9661 87.4263 65.5424 87.279 66.2011 87.279C66.8511 87.279 67.3927 87.4177 67.8261 87.695C68.2681 87.9723 68.5974 88.3623 68.8141 88.865C69.0394 89.359 69.1521 89.9353 69.1521 90.594V91.049H64.5371V90.074H67.7221L67.5011 90.256C67.5011 89.71 67.3884 89.2983 67.1631 89.021C66.9464 88.735 66.6301 88.592 66.2141 88.592C65.7547 88.592 65.3994 88.761 65.1481 89.099C64.9054 89.437 64.7841 89.9223 64.7841 90.555V90.763C64.7841 91.4043 64.9401 91.881 65.2521 92.193C65.5727 92.505 66.0321 92.661 66.6301 92.661C66.9854 92.661 67.3191 92.6177 67.6311 92.531C67.9517 92.4357 68.2551 92.2883 68.5411 92.089L69.0871 93.389C68.7577 93.6317 68.3764 93.818 67.9431 93.948C67.5184 94.078 67.0591 94.143 66.5651 94.143ZM72.8285 94.143C72.2392 94.143 71.7019 94.078 71.2165 93.948C70.7312 93.818 70.3195 93.636 69.9815 93.402L70.4885 92.102C70.8265 92.31 71.1992 92.4747 71.6065 92.596C72.0225 92.7173 72.4342 92.778 72.8415 92.778C73.2229 92.778 73.5045 92.7173 73.6865 92.596C73.8685 92.4747 73.9595 92.31 73.9595 92.102C73.9595 91.9287 73.8989 91.7943 73.7775 91.699C73.6649 91.6037 73.4872 91.5343 73.2445 91.491L71.9055 91.244C71.3422 91.1313 70.9132 90.9233 70.6185 90.62C70.3239 90.3167 70.1765 89.9223 70.1765 89.437C70.1765 89.0123 70.2892 88.6397 70.5145 88.319C70.7485 87.9897 71.0822 87.734 71.5155 87.552C71.9489 87.37 72.4559 87.279 73.0365 87.279C73.5305 87.279 73.9985 87.3397 74.4405 87.461C74.8825 87.5823 75.2595 87.7687 75.5715 88.02L75.0385 89.281C74.7699 89.0817 74.4579 88.9213 74.1025 88.8C73.7559 88.6787 73.4222 88.618 73.1015 88.618C72.6855 88.618 72.3865 88.6873 72.2045 88.826C72.0225 88.956 71.9315 89.125 71.9315 89.333C71.9315 89.489 71.9835 89.619 72.0875 89.723C72.2002 89.827 72.3692 89.905 72.5945 89.957L73.9465 90.204C74.5272 90.308 74.9692 90.503 75.2725 90.789C75.5759 91.075 75.7275 91.4693 75.7275 91.972C75.7275 92.4313 75.6062 92.8213 75.3635 93.142C75.1209 93.4627 74.7785 93.7097 74.3365 93.883C73.9032 94.0563 73.4005 94.143 72.8285 94.143ZM80.6172 94V87.409H82.5802V94H80.6172ZM80.5392 86.33V84.497H82.6452V86.33H80.5392ZM86.6156 94.143C86.0263 94.143 85.489 94.078 85.0036 93.948C84.5183 93.818 84.1066 93.636 83.7686 93.402L84.2756 92.102C84.6136 92.31 84.9863 92.4747 85.3936 92.596C85.8096 92.7173 86.2213 92.778 86.6286 92.778C87.01 92.778 87.2916 92.7173 87.4736 92.596C87.6556 92.4747 87.7466 92.31 87.7466 92.102C87.7466 91.9287 87.686 91.7943 87.5646 91.699C87.452 91.6037 87.2743 91.5343 87.0316 91.491L85.6926 91.244C85.1293 91.1313 84.7003 90.9233 84.4056 90.62C84.111 90.3167 83.9636 89.9223 83.9636 89.437C83.9636 89.0123 84.0763 88.6397 84.3016 88.319C84.5356 87.9897 84.8693 87.734 85.3026 87.552C85.736 87.37 86.243 87.279 86.8236 87.279C87.3176 87.279 87.7856 87.3397 88.2276 87.461C88.6696 87.5823 89.0466 87.7687 89.3586 88.02L88.8256 89.281C88.557 89.0817 88.245 88.9213 87.8896 88.8C87.543 88.6787 87.2093 88.618 86.8886 88.618C86.4726 88.618 86.1736 88.6873 85.9916 88.826C85.8096 88.956 85.7186 89.125 85.7186 89.333C85.7186 89.489 85.7706 89.619 85.8746 89.723C85.9873 89.827 86.1563 89.905 86.3816 89.957L87.7336 90.204C88.3143 90.308 88.7563 90.503 89.0596 90.789C89.363 91.075 89.5146 91.4693 89.5146 91.972C89.5146 92.4313 89.3933 92.8213 89.1506 93.142C88.908 93.4627 88.5656 93.7097 88.1236 93.883C87.6903 94.0563 87.1876 94.143 86.6156 94.143ZM97.4854 94.143C96.6274 94.143 95.9817 93.9307 95.5484 93.506C95.115 93.0727 94.8984 92.427 94.8984 91.569V88.878H93.6504V87.409H94.8984V85.797L96.8614 85.316V87.409H98.5514V88.878H96.8614V91.465C96.8614 91.881 96.948 92.167 97.1214 92.323C97.2947 92.479 97.5157 92.557 97.7844 92.557C97.949 92.557 98.0834 92.5483 98.1874 92.531C98.3 92.505 98.417 92.4703 98.5384 92.427V93.948C98.3737 94.0173 98.2004 94.065 98.0184 94.091C97.8364 94.1257 97.6587 94.143 97.4854 94.143ZM99.5587 94V84.432H101.522V88.644H101.327C101.535 88.202 101.842 87.864 102.25 87.63C102.657 87.396 103.125 87.279 103.654 87.279C104.425 87.279 105.001 87.5043 105.383 87.955C105.764 88.397 105.955 89.0773 105.955 89.996V94H103.992V90.087C103.992 89.6277 103.905 89.2983 103.732 89.099C103.567 88.8997 103.307 88.8 102.952 88.8C102.518 88.8 102.172 88.9343 101.912 89.203C101.652 89.4717 101.522 89.8313 101.522 90.282V94H99.5587ZM110.846 94.143C109.702 94.143 108.81 93.8353 108.168 93.22C107.527 92.6047 107.206 91.7683 107.206 90.711C107.206 90.0263 107.341 89.4283 107.609 88.917C107.887 88.4057 108.268 88.007 108.753 87.721C109.247 87.4263 109.824 87.279 110.482 87.279C111.132 87.279 111.674 87.4177 112.107 87.695C112.549 87.9723 112.879 88.3623 113.095 88.865C113.321 89.359 113.433 89.9353 113.433 90.594V91.049H108.818V90.074H112.003L111.782 90.256C111.782 89.71 111.67 89.2983 111.444 89.021C111.228 88.735 110.911 88.592 110.495 88.592C110.036 88.592 109.681 88.761 109.429 89.099C109.187 89.437 109.065 89.9223 109.065 90.555V90.763C109.065 91.4043 109.221 91.881 109.533 92.193C109.854 92.505 110.313 92.661 110.911 92.661C111.267 92.661 111.6 92.6177 111.912 92.531C112.233 92.4357 112.536 92.2883 112.822 92.089L113.368 93.389C113.039 93.6317 112.658 93.818 112.224 93.948C111.8 94.078 111.34 94.143 110.846 94.143ZM120.909 94.143C120.337 94.143 119.834 94.0043 119.401 93.727C118.967 93.4497 118.629 93.0553 118.387 92.544C118.144 92.0327 118.023 91.4173 118.023 90.698C118.023 89.9873 118.144 89.3763 118.387 88.865C118.629 88.3537 118.967 87.9637 119.401 87.695C119.834 87.4177 120.337 87.279 120.909 87.279C121.437 87.279 121.91 87.409 122.326 87.669C122.75 87.9203 123.028 88.2627 123.158 88.696H123.015L123.171 87.409H125.056C125.03 87.695 125.004 87.9853 124.978 88.28C124.96 88.566 124.952 88.8477 124.952 89.125V94H123.002L122.989 92.765H123.145C123.006 93.181 122.729 93.5147 122.313 93.766C121.897 94.0173 121.429 94.143 120.909 94.143ZM121.507 92.661C121.957 92.661 122.321 92.5007 122.599 92.18C122.876 91.8593 123.015 91.3653 123.015 90.698C123.015 90.0307 122.876 89.541 122.599 89.229C122.321 88.917 121.957 88.761 121.507 88.761C121.056 88.761 120.692 88.917 120.415 89.229C120.137 89.541 119.999 90.0307 119.999 90.698C119.999 91.3653 120.133 91.8593 120.402 92.18C120.679 92.5007 121.047 92.661 121.507 92.661ZM126.562 94V87.409H128.525V94H126.562ZM126.484 86.33V84.497H128.59V86.33H126.484ZM130.116 94V89.151C130.116 88.865 130.107 88.5747 130.09 88.28C130.081 87.9853 130.06 87.695 130.025 87.409H131.91L132.131 89.333H131.832C131.919 88.865 132.057 88.4793 132.248 88.176C132.447 87.8727 132.69 87.6473 132.976 87.5C133.271 87.3527 133.604 87.279 133.977 87.279C134.142 87.279 134.272 87.2877 134.367 87.305C134.462 87.3137 134.558 87.3353 134.653 87.37L134.64 89.099C134.458 89.021 134.302 88.9733 134.172 88.956C134.051 88.93 133.895 88.917 133.704 88.917C133.34 88.917 133.037 88.9863 132.794 89.125C132.56 89.2637 132.382 89.4673 132.261 89.736C132.148 90.0047 132.092 90.3297 132.092 90.711V94H130.116ZM135.474 96.808V89.125C135.474 88.8477 135.465 88.566 135.448 88.28C135.43 87.9853 135.404 87.695 135.37 87.409H137.255L137.411 88.696H137.268C137.398 88.2627 137.671 87.9203 138.087 87.669C138.503 87.409 138.979 87.279 139.517 87.279C140.089 87.279 140.591 87.4177 141.025 87.695C141.458 87.9637 141.796 88.3537 142.039 88.865C142.29 89.3763 142.416 89.9873 142.416 90.698C142.416 91.4173 142.29 92.0327 142.039 92.544C141.796 93.0553 141.458 93.4497 141.025 93.727C140.591 94.0043 140.089 94.143 139.517 94.143C138.988 94.143 138.516 94.0173 138.1 93.766C137.692 93.5147 137.419 93.181 137.281 92.765H137.437V96.808H135.474ZM138.919 92.661C139.378 92.661 139.746 92.5007 140.024 92.18C140.301 91.8593 140.44 91.3653 140.44 90.698C140.44 90.0307 140.301 89.541 140.024 89.229C139.746 88.917 139.378 88.761 138.919 88.761C138.468 88.761 138.1 88.917 137.814 89.229C137.536 89.541 137.398 90.0307 137.398 90.698C137.398 91.3653 137.536 91.8593 137.814 92.18C138.1 92.5007 138.468 92.661 138.919 92.661ZM146.808 94.143C146.106 94.143 145.495 94.0043 144.975 93.727C144.463 93.441 144.065 93.0423 143.779 92.531C143.501 92.0197 143.363 91.4087 143.363 90.698C143.363 89.996 143.501 89.3893 143.779 88.878C144.065 88.3667 144.463 87.9723 144.975 87.695C145.495 87.4177 146.106 87.279 146.808 87.279C147.51 87.279 148.121 87.4177 148.641 87.695C149.161 87.9723 149.559 88.3667 149.837 88.878C150.123 89.3893 150.266 89.996 150.266 90.698C150.266 91.4087 150.123 92.0197 149.837 92.531C149.559 93.0423 149.161 93.441 148.641 93.727C148.121 94.0043 147.51 94.143 146.808 94.143ZM146.808 92.661C147.258 92.661 147.614 92.5007 147.874 92.18C148.142 91.8593 148.277 91.3653 148.277 90.698C148.277 90.0307 148.142 89.541 147.874 89.229C147.614 88.917 147.258 88.761 146.808 88.761C146.357 88.761 145.997 88.917 145.729 89.229C145.469 89.541 145.339 90.0307 145.339 90.698C145.339 91.3653 145.469 91.8593 145.729 92.18C145.997 92.5007 146.357 92.661 146.808 92.661ZM151.52 94V89.151C151.52 88.865 151.512 88.5747 151.494 88.28C151.486 87.9853 151.464 87.695 151.429 87.409H153.314L153.535 89.333H153.236C153.323 88.865 153.462 88.4793 153.652 88.176C153.852 87.8727 154.094 87.6473 154.38 87.5C154.675 87.3527 155.009 87.279 155.381 87.279C155.546 87.279 155.676 87.2877 155.771 87.305C155.867 87.3137 155.962 87.3353 156.057 87.37L156.044 89.099C155.862 89.021 155.706 88.9733 155.576 88.956C155.455 88.93 155.299 88.917 155.108 88.917C154.744 88.917 154.441 88.9863 154.198 89.125C153.964 89.2637 153.787 89.4673 153.665 89.736C153.553 90.0047 153.496 90.3297 153.496 90.711V94H151.52ZM160.34 94.143C159.482 94.143 158.836 93.9307 158.403 93.506C157.97 93.0727 157.753 92.427 157.753 91.569V88.878H156.505V87.409H157.753V85.797L159.716 85.316V87.409H161.406V88.878H159.716V91.465C159.716 91.881 159.803 92.167 159.976 92.323C160.149 92.479 160.37 92.557 160.639 92.557C160.804 92.557 160.938 92.5483 161.042 92.531C161.155 92.505 161.272 92.4703 161.393 92.427V93.948C161.228 94.0173 161.055 94.065 160.873 94.091C160.691 94.1257 160.513 94.143 160.34 94.143ZM22.7393 112.808V105.125C22.7393 104.848 22.7307 104.566 22.7133 104.28C22.696 103.985 22.67 103.695 22.6353 103.409H24.5203L24.6763 104.696H24.5333C24.6633 104.263 24.9363 103.92 25.3523 103.669C25.7683 103.409 26.245 103.279 26.7823 103.279C27.3543 103.279 27.857 103.418 28.2903 103.695C28.7237 103.964 29.0617 104.354 29.3043 104.865C29.5557 105.376 29.6813 105.987 29.6813 106.698C29.6813 107.417 29.5557 108.033 29.3043 108.544C29.0617 109.055 28.7237 109.45 28.2903 109.727C27.857 110.004 27.3543 110.143 26.7823 110.143C26.2537 110.143 25.7813 110.017 25.3653 109.766C24.958 109.515 24.685 109.181 24.5463 108.765H24.7023V112.808H22.7393ZM26.1843 108.661C26.6437 108.661 27.012 108.501 27.2893 108.18C27.5667 107.859 27.7053 107.365 27.7053 106.698C27.7053 106.031 27.5667 105.541 27.2893 105.229C27.012 104.917 26.6437 104.761 26.1843 104.761C25.7337 104.761 25.3653 104.917 25.0793 105.229C24.802 105.541 24.6633 106.031 24.6633 106.698C24.6633 107.365 24.802 107.859 25.0793 108.18C25.3653 108.501 25.7337 108.661 26.1843 108.661ZM30.9532 110V103.409H32.9162V110H30.9532ZM30.8752 102.33V100.497H32.9812V102.33H30.8752ZM37.6926 110.143C36.9906 110.143 36.3752 110.004 35.8466 109.727C35.3179 109.45 34.9106 109.051 34.6246 108.531C34.3386 108.011 34.1956 107.396 34.1956 106.685C34.1956 105.966 34.3386 105.355 34.6246 104.852C34.9192 104.341 35.3266 103.951 35.8466 103.682C36.3752 103.413 36.9906 103.279 37.6926 103.279C38.1346 103.279 38.5636 103.344 38.9796 103.474C39.4042 103.604 39.7509 103.786 40.0196 104.02L39.4476 105.372C39.2309 105.173 38.9796 105.025 38.6936 104.93C38.4162 104.826 38.1476 104.774 37.8876 104.774C37.3589 104.774 36.9472 104.939 36.6526 105.268C36.3579 105.597 36.2106 106.074 36.2106 106.698C36.2106 107.322 36.3579 107.799 36.6526 108.128C36.9472 108.457 37.3589 108.622 37.8876 108.622C38.1389 108.622 38.4032 108.574 38.6806 108.479C38.9666 108.384 39.2222 108.241 39.4476 108.05L40.0196 109.389C39.7422 109.623 39.3912 109.809 38.9666 109.948C38.5506 110.078 38.1259 110.143 37.6926 110.143ZM41.1348 110V100.432H43.0978V106.152H43.1238L45.5678 103.409H47.9078L44.7488 106.919V106.204L48.0768 110H45.6718L43.1238 107.14H43.0978V110H41.1348ZM48.5997 110V103.409H50.5627V110H48.5997ZM48.5217 102.33V100.497H50.6277V102.33H48.5217ZM52.1671 112.808V105.125C52.1671 104.848 52.1584 104.566 52.1411 104.28C52.1237 103.985 52.0977 103.695 52.0631 103.409H53.9481L54.1041 104.696H53.9611C54.0911 104.263 54.3641 103.92 54.7801 103.669C55.1961 103.409 55.6727 103.279 56.2101 103.279C56.7821 103.279 57.2847 103.418 57.7181 103.695C58.1514 103.964 58.4894 104.354 58.7321 104.865C58.9834 105.376 59.1091 105.987 59.1091 106.698C59.1091 107.417 58.9834 108.033 58.7321 108.544C58.4894 109.055 58.1514 109.45 57.7181 109.727C57.2847 110.004 56.7821 110.143 56.2101 110.143C55.6814 110.143 55.2091 110.017 54.7931 109.766C54.3857 109.515 54.1127 109.181 53.9741 108.765H54.1301V112.808H52.1671ZM55.6121 108.661C56.0714 108.661 56.4397 108.501 56.7171 108.18C56.9944 107.859 57.1331 107.365 57.1331 106.698C57.1331 106.031 56.9944 105.541 56.7171 105.229C56.4397 104.917 56.0714 104.761 55.6121 104.761C55.1614 104.761 54.7931 104.917 54.5071 105.229C54.2297 105.541 54.0911 106.031 54.0911 106.698C54.0911 107.365 54.2297 107.859 54.5071 108.18C54.7931 108.501 55.1614 108.661 55.6121 108.661ZM66.6109 110.143C66.0389 110.143 65.5362 110.004 65.1029 109.727C64.6695 109.45 64.3315 109.055 64.0889 108.544C63.8462 108.033 63.7249 107.417 63.7249 106.698C63.7249 105.987 63.8462 105.376 64.0889 104.865C64.3315 104.354 64.6695 103.964 65.1029 103.695C65.5362 103.418 66.0389 103.279 66.6109 103.279C67.1395 103.279 67.6119 103.409 68.0279 103.669C68.4525 103.92 68.7299 104.263 68.8599 104.696H68.7169L68.8729 103.409H70.7579C70.7319 103.695 70.7059 103.985 70.6799 104.28C70.6625 104.566 70.6539 104.848 70.6539 105.125V110H68.7039L68.6909 108.765H68.8469C68.7082 109.181 68.4309 109.515 68.0149 109.766C67.5989 110.017 67.1309 110.143 66.6109 110.143ZM67.2089 108.661C67.6595 108.661 68.0235 108.501 68.3009 108.18C68.5782 107.859 68.7169 107.365 68.7169 106.698C68.7169 106.031 68.5782 105.541 68.3009 105.229C68.0235 104.917 67.6595 104.761 67.2089 104.761C66.7582 104.761 66.3942 104.917 66.1169 105.229C65.8395 105.541 65.7009 106.031 65.7009 106.698C65.7009 107.365 65.8352 107.859 66.1039 108.18C66.3812 108.501 66.7495 108.661 67.2089 108.661ZM72.2637 110V105.125C72.2637 104.848 72.2551 104.566 72.2377 104.28C72.2204 103.985 72.1944 103.695 72.1597 103.409H74.0447L74.1877 104.631H74.0317C74.2484 104.198 74.5561 103.864 74.9547 103.63C75.3534 103.396 75.8171 103.279 76.3457 103.279C77.1171 103.279 77.6934 103.504 78.0747 103.955C78.4647 104.397 78.6597 105.086 78.6597 106.022V110H76.6967V106.113C76.6967 105.636 76.6101 105.298 76.4367 105.099C76.2634 104.9 76.0034 104.8 75.6567 104.8C75.2234 104.8 74.8767 104.939 74.6167 105.216C74.3567 105.485 74.2267 105.849 74.2267 106.308V110H72.2637ZM82.8234 110.143C82.2514 110.143 81.7444 110.004 81.3024 109.727C80.8691 109.45 80.5267 109.055 80.2754 108.544C80.0327 108.033 79.9114 107.417 79.9114 106.698C79.9114 105.987 80.0327 105.376 80.2754 104.865C80.5181 104.354 80.8604 103.964 81.3024 103.695C81.7444 103.418 82.2514 103.279 82.8234 103.279C83.3434 103.279 83.8071 103.405 84.2144 103.656C84.6304 103.899 84.9077 104.228 85.0464 104.644H84.8774V100.432H86.8404V110H84.9034V108.713H85.0724C84.9337 109.146 84.6564 109.493 84.2404 109.753C83.8244 110.013 83.3521 110.143 82.8234 110.143ZM83.4084 108.661C83.8591 108.661 84.2231 108.501 84.5004 108.18C84.7777 107.859 84.9164 107.365 84.9164 106.698C84.9164 106.031 84.7777 105.541 84.5004 105.229C84.2231 104.917 83.8591 104.761 83.4084 104.761C82.9577 104.761 82.5894 104.917 82.3034 105.229C82.0261 105.541 81.8874 106.031 81.8874 106.698C81.8874 107.365 82.0261 107.859 82.3034 108.18C82.5894 108.501 82.9577 108.661 83.4084 108.661ZM94.7062 110.143C94.1342 110.143 93.6272 110.004 93.1852 109.727C92.7519 109.45 92.4095 109.055 92.1582 108.544C91.9155 108.033 91.7942 107.417 91.7942 106.698C91.7942 105.987 91.9155 105.376 92.1582 104.865C92.4009 104.354 92.7432 103.964 93.1852 103.695C93.6272 103.418 94.1342 103.279 94.7062 103.279C95.2262 103.279 95.6899 103.405 96.0972 103.656C96.5132 103.899 96.7905 104.228 96.9292 104.644H96.7602V100.432H98.7232V110H96.7862V108.713H96.9552C96.8165 109.146 96.5392 109.493 96.1232 109.753C95.7072 110.013 95.2349 110.143 94.7062 110.143ZM95.2912 108.661C95.7419 108.661 96.1059 108.501 96.3832 108.18C96.6605 107.859 96.7992 107.365 96.7992 106.698C96.7992 106.031 96.6605 105.541 96.3832 105.229C96.1059 104.917 95.7419 104.761 95.2912 104.761C94.8405 104.761 94.4722 104.917 94.1862 105.229C93.9089 105.541 93.7702 106.031 93.7702 106.698C93.7702 107.365 93.9089 107.859 94.1862 108.18C94.4722 108.501 94.8405 108.661 95.2912 108.661ZM100.32 110V105.151C100.32 104.865 100.311 104.575 100.294 104.28C100.285 103.985 100.264 103.695 100.229 103.409H102.114L102.335 105.333H102.036C102.123 104.865 102.261 104.479 102.452 104.176C102.651 103.873 102.894 103.647 103.18 103.5C103.475 103.353 103.808 103.279 104.181 103.279C104.346 103.279 104.476 103.288 104.571 103.305C104.666 103.314 104.762 103.335 104.857 103.37L104.844 105.099C104.662 105.021 104.506 104.973 104.376 104.956C104.255 104.93 104.099 104.917 103.908 104.917C103.544 104.917 103.241 104.986 102.998 105.125C102.764 105.264 102.586 105.467 102.465 105.736C102.352 106.005 102.296 106.33 102.296 106.711V110H100.32ZM108.684 110.143C107.982 110.143 107.371 110.004 106.851 109.727C106.339 109.441 105.941 109.042 105.655 108.531C105.377 108.02 105.239 107.409 105.239 106.698C105.239 105.996 105.377 105.389 105.655 104.878C105.941 104.367 106.339 103.972 106.851 103.695C107.371 103.418 107.982 103.279 108.684 103.279C109.386 103.279 109.997 103.418 110.517 103.695C111.037 103.972 111.435 104.367 111.713 104.878C111.999 105.389 112.142 105.996 112.142 106.698C112.142 107.409 111.999 108.02 111.713 108.531C111.435 109.042 111.037 109.441 110.517 109.727C109.997 110.004 109.386 110.143 108.684 110.143ZM108.684 108.661C109.134 108.661 109.49 108.501 109.75 108.18C110.018 107.859 110.153 107.365 110.153 106.698C110.153 106.031 110.018 105.541 109.75 105.229C109.49 104.917 109.134 104.761 108.684 104.761C108.233 104.761 107.873 104.917 107.605 105.229C107.345 105.541 107.215 106.031 107.215 106.698C107.215 107.365 107.345 107.859 107.605 108.18C107.873 108.501 108.233 108.661 108.684 108.661ZM113.409 112.808V105.125C113.409 104.848 113.401 104.566 113.383 104.28C113.366 103.985 113.34 103.695 113.305 103.409H115.19L115.346 104.696H115.203C115.333 104.263 115.606 103.92 116.022 103.669C116.438 103.409 116.915 103.279 117.452 103.279C118.024 103.279 118.527 103.418 118.96 103.695C119.394 103.964 119.732 104.354 119.974 104.865C120.226 105.376 120.351 105.987 120.351 106.698C120.351 107.417 120.226 108.033 119.974 108.544C119.732 109.055 119.394 109.45 118.96 109.727C118.527 110.004 118.024 110.143 117.452 110.143C116.924 110.143 116.451 110.017 116.035 109.766C115.628 109.515 115.355 109.181 115.216 108.765H115.372V112.808H113.409ZM116.854 108.661C117.314 108.661 117.682 108.501 117.959 108.18C118.237 107.859 118.375 107.365 118.375 106.698C118.375 106.031 118.237 105.541 117.959 105.229C117.682 104.917 117.314 104.761 116.854 104.761C116.404 104.761 116.035 104.917 115.749 105.229C115.472 105.541 115.333 106.031 115.333 106.698C115.333 107.365 115.472 107.859 115.749 108.18C116.035 108.501 116.404 108.661 116.854 108.661ZM127.723 110.143C127.134 110.143 126.596 110.078 126.111 109.948C125.626 109.818 125.214 109.636 124.876 109.402L125.383 108.102C125.721 108.31 126.094 108.475 126.501 108.596C126.917 108.717 127.329 108.778 127.736 108.778C128.117 108.778 128.399 108.717 128.581 108.596C128.763 108.475 128.854 108.31 128.854 108.102C128.854 107.929 128.793 107.794 128.672 107.699C128.559 107.604 128.382 107.534 128.139 107.491L126.8 107.244C126.237 107.131 125.808 106.923 125.513 106.62C125.218 106.317 125.071 105.922 125.071 105.437C125.071 105.012 125.184 104.64 125.409 104.319C125.643 103.99 125.977 103.734 126.41 103.552C126.843 103.37 127.35 103.279 127.931 103.279C128.425 103.279 128.893 103.34 129.335 103.461C129.777 103.582 130.154 103.769 130.466 104.02L129.933 105.281C129.664 105.082 129.352 104.921 128.997 104.8C128.65 104.679 128.317 104.618 127.996 104.618C127.58 104.618 127.281 104.687 127.099 104.826C126.917 104.956 126.826 105.125 126.826 105.333C126.826 105.489 126.878 105.619 126.982 105.723C127.095 105.827 127.264 105.905 127.489 105.957L128.841 106.204C129.422 106.308 129.864 106.503 130.167 106.789C130.47 107.075 130.622 107.469 130.622 107.972C130.622 108.431 130.501 108.821 130.258 109.142C130.015 109.463 129.673 109.71 129.231 109.883C128.798 110.056 128.295 110.143 127.723 110.143ZM135.158 110.143C134.014 110.143 133.121 109.835 132.48 109.22C131.839 108.605 131.518 107.768 131.518 106.711C131.518 106.026 131.652 105.428 131.921 104.917C132.198 104.406 132.58 104.007 133.065 103.721C133.559 103.426 134.135 103.279 134.794 103.279C135.444 103.279 135.986 103.418 136.419 103.695C136.861 103.972 137.19 104.362 137.407 104.865C137.632 105.359 137.745 105.935 137.745 106.594V107.049H133.13V106.074H136.315L136.094 106.256C136.094 105.71 135.981 105.298 135.756 105.021C135.539 104.735 135.223 104.592 134.807 104.592C134.348 104.592 133.992 104.761 133.741 105.099C133.498 105.437 133.377 105.922 133.377 106.555V106.763C133.377 107.404 133.533 107.881 133.845 108.193C134.166 108.505 134.625 108.661 135.223 108.661C135.578 108.661 135.912 108.618 136.224 108.531C136.545 108.436 136.848 108.288 137.134 108.089L137.68 109.389C137.351 109.632 136.969 109.818 136.536 109.948C136.111 110.078 135.652 110.143 135.158 110.143ZM138.977 110V105.151C138.977 104.865 138.969 104.575 138.951 104.28C138.943 103.985 138.921 103.695 138.886 103.409H140.771L140.992 105.333H140.693C140.78 104.865 140.919 104.479 141.109 104.176C141.309 103.873 141.551 103.647 141.837 103.5C142.132 103.353 142.466 103.279 142.838 103.279C143.003 103.279 143.133 103.288 143.228 103.305C143.324 103.314 143.419 103.335 143.514 103.37L143.501 105.099C143.319 105.021 143.163 104.973 143.033 104.956C142.912 104.93 142.756 104.917 142.565 104.917C142.201 104.917 141.898 104.986 141.655 105.125C141.421 105.264 141.244 105.467 141.122 105.736C141.01 106.005 140.953 106.33 140.953 106.711V110H138.977ZM146.64 110L143.793 103.409H145.86L147.745 108.193H147.316L149.266 103.409H151.203L148.33 110H146.64ZM151.889 110V103.409H153.852V110H151.889ZM151.811 102.33V100.497H153.917V102.33H151.811ZM158.628 110.143C157.926 110.143 157.311 110.004 156.782 109.727C156.253 109.45 155.846 109.051 155.56 108.531C155.274 108.011 155.131 107.396 155.131 106.685C155.131 105.966 155.274 105.355 155.56 104.852C155.855 104.341 156.262 103.951 156.782 103.682C157.311 103.413 157.926 103.279 158.628 103.279C159.07 103.279 159.499 103.344 159.915 103.474C160.34 103.604 160.686 103.786 160.955 104.02L160.383 105.372C160.166 105.173 159.915 105.025 159.629 104.93C159.352 104.826 159.083 104.774 158.823 104.774C158.294 104.774 157.883 104.939 157.588 105.268C157.293 105.597 157.146 106.074 157.146 106.698C157.146 107.322 157.293 107.799 157.588 108.128C157.883 108.457 158.294 108.622 158.823 108.622C159.074 108.622 159.339 108.574 159.616 108.479C159.902 108.384 160.158 108.241 160.383 108.05L160.955 109.389C160.678 109.623 160.327 109.809 159.902 109.948C159.486 110.078 159.061 110.143 158.628 110.143ZM165.258 110.143C164.114 110.143 163.222 109.835 162.58 109.22C161.939 108.605 161.618 107.768 161.618 106.711C161.618 106.026 161.753 105.428 162.021 104.917C162.299 104.406 162.68 104.007 163.165 103.721C163.659 103.426 164.236 103.279 164.894 103.279C165.544 103.279 166.086 103.418 166.519 103.695C166.961 103.972 167.291 104.362 167.507 104.865C167.733 105.359 167.845 105.935 167.845 106.594V107.049H163.23V106.074H166.415L166.194 106.256C166.194 105.71 166.082 105.298 165.856 105.021C165.64 104.735 165.323 104.592 164.907 104.592C164.448 104.592 164.093 104.761 163.841 105.099C163.599 105.437 163.477 105.922 163.477 106.555V106.763C163.477 107.404 163.633 107.881 163.945 108.193C164.266 108.505 164.725 108.661 165.323 108.661C165.679 108.661 166.012 108.618 166.324 108.531C166.645 108.436 166.948 108.288 167.234 108.089L167.78 109.389C167.451 109.632 167.07 109.818 166.636 109.948C166.212 110.078 165.752 110.143 165.258 110.143ZM168.922 110V107.92H171.028V110H168.922Z" fill="#F5F9FF"/>
</svg>
