<svg width="15" height="15" viewBox="0 0 15 15" fill="none" xmlns="http://www.w3.org/2000/svg">
<path d="M7.5 6.33333C6.85 6.33333 6.33333 6.85 6.33333 7.5C6.33333 8.15 6.85 8.66667 7.5 8.66667C8.15 8.66667 8.66667 8.15 8.66667 7.5C8.66667 6.85 8.15 6.33333 7.5 6.33333ZM7.5 8C7.21667 8 7 7.76667 7 7.5C7 7.21667 7.21667 7 7.5 7C7.78333 7 8 7.21667 8 7.5C8 7.76667 7.78333 8 7.5 8ZM7.5 0C3.36667 0 0 3.36667 0 7.5C0 11.6333 3.36667 15 7.5 15C11.6333 15 15 11.6333 15 7.5C15 3.36667 11.6333 0 7.5 0ZM7.5 14.3333C3.73333 14.3333 0.666667 11.2667 0.666667 7.5C0.666667 3.73333 3.73333 0.666667 7.5 0.666667C11.2667 0.666667 14.3333 3.73333 14.3333 7.5C14.3333 11.2667 11.2667 14.3333 7.5 14.3333ZM7.5 1.66667C4.28333 1.66667 1.66667 4.28333 1.66667 7.5C1.66667 10.7167 4.28333 13.3333 7.5 13.3333C10.7167 13.3333 13.3333 10.7167 13.3333 7.5C13.3333 4.28333 10.7167 1.66667 7.5 1.66667ZM12.5333 6.35H9.63333L9.56667 6.23333L11.0167 3.71667C11.7667 4.41667 12.3 5.31667 12.5333 6.35ZM7.5 2.33333C8.03333 2.33333 8.55 2.41667 9.03333 2.56667L7.58333 5.08333H7.43333L5.98333 2.56667C6.45 2.41667 6.96667 2.33333 7.5 2.33333ZM3.98333 3.71667L5.43333 6.23333L5.36667 6.35H2.46667C2.7 5.31667 3.23333 4.41667 3.98333 3.71667ZM2.46667 8.65H5.36667L5.43333 8.76667L3.98333 11.2833C3.23333 10.5833 2.7 9.68333 2.46667 8.65ZM7.5 12.6667C6.96667 12.6667 6.45 12.5833 5.96667 12.4333L7.41667 9.91667H7.56667L9.01667 12.4333C8.55 12.5833 8.03333 12.6667 7.5 12.6667ZM11.0167 11.2833L9.56667 8.76667L9.63333 8.65H12.5333C12.3 9.68333 11.7667 10.5833 11.0167 11.2833ZM12.65 7.98333H9.43333C9.31667 7.98333 9.2 8.05 9.15 8.15L8.88333 8.6C8.81667 8.7 8.81667 8.83333 8.88333 8.93333L10.4833 11.7C10.4 11.7667 10.3 11.8333 10.2 11.8833L9.91667 12.05C9.83333 12.1 9.73333 12.15 9.63333 12.1833L8.03333 9.41667C7.98333 9.31667 7.86667 9.25 7.75 9.25H7.21667C7.1 9.25 6.98333 9.31667 6.93333 9.41667L5.33333 12.1833C5.23333 12.1333 5.15 12.1 5.05 12.05L4.76667 11.8833C4.66667 11.8167 4.58333 11.7667 4.48333 11.7L6.08333 8.93333C6.15 8.83333 6.15 8.7 6.08333 8.6L5.81667 8.15C5.75 8.05 5.65 7.98333 5.53333 7.98333H2.35C2.35 7.88333 2.33333 7.76667 2.33333 7.66667V7.33333C2.33333 7.23333 2.35 7.11667 2.35 7.01667H5.55C5.66667 7.01667 5.78333 6.95 5.83333 6.85L6.1 6.4C6.16667 6.3 6.16667 6.16667 6.1 6.06667L4.5 3.28333C4.58333 3.21667 4.68333 3.15 4.78333 3.1L5.05 2.95C5.13333 2.9 5.23333 2.85 5.33333 2.81667L6.93333 5.6C6.98333 5.7 7.1 5.76667 7.21667 5.76667H7.75C7.86667 5.76667 7.98333 5.7 8.03333 5.6L9.63333 2.81667C9.73333 2.86667 9.81667 2.9 9.91667 2.95L10.1833 3.1C10.2833 3.16667 10.3667 3.21667 10.4667 3.28333L8.86667 6.06667C8.8 6.16667 8.8 6.3 8.86667 6.4L9.13333 6.85C9.2 6.95 9.3 7.01667 9.41667 7.01667H12.6167C12.6333 7.11667 12.6333 7.23333 12.6333 7.33333V7.66667C12.6667 7.76667 12.65 7.86667 12.65 7.98333Z" fill="#EDD500"/>
</svg>
